<svg width="20" height="22" viewBox="0 0 20 22" fill="none" xmlns="http://www.w3.org/2000/svg">
<path d="M20.0002 11C20.0002 11.3781 19.6699 11.6875 19.2591 11.6875H2.41584L8.69709 18.1027C8.97196 18.3834 8.94955 18.8186 8.64718 19.0734C8.50468 19.1898 8.32611 19.25 8.14754 19.25C7.94642 19.25 7.74535 19.1748 7.59933 19.0244L0.193078 11.4619C-0.0637081 11.2001 -0.0637081 10.7998 0.193078 10.5381L7.59933 2.97559C7.87566 2.69362 8.34441 2.6748 8.6462 2.92858C8.94857 3.18373 8.97098 3.61866 8.69611 3.89924L2.41584 10.3125H19.2596C19.6699 10.3125 20.0002 10.6219 20.0002 11Z" fill="#333333"/>
</svg>
