<svg width="27" height="28" viewBox="0 0 27 28" fill="none" xmlns="http://www.w3.org/2000/svg">
<path d="M13.875 15.75H10.375C7.95781 15.75 6 17.7078 6 20.125C6 20.6063 6.39375 21 6.875 21C7.35625 21 7.75 20.6063 7.75 20.125C7.75 18.6758 8.92578 17.5 10.375 17.5H13.875C15.3248 17.5 16.5 18.6752 16.5 20.125C16.5 20.6082 16.8918 21 17.375 21C17.8583 21 18.25 20.6082 18.25 20.125C18.25 17.7078 16.2922 15.75 13.875 15.75ZM26.125 10.5H25.25V15.75H26.125C26.6063 15.75 27 15.3562 27 14.875V11.375C27 10.8938 26.6063 10.5 26.125 10.5ZM12.125 14C14.0582 14 15.625 12.4332 15.625 10.5C15.625 8.5668 14.0582 7 12.125 7C10.1918 7 8.625 8.5668 8.625 10.5C8.625 12.4332 10.1945 14 12.125 14ZM12.125 8.75C13.0897 8.75 13.875 9.53531 13.875 10.5C13.875 11.4647 13.0897 12.25 12.125 12.25C11.1603 12.25 10.375 11.4647 10.375 10.5C10.375 9.53531 11.1625 8.75 12.125 8.75ZM26.125 17.5H25.25V22.75H26.125C26.6083 22.75 27 22.3582 27 21.875V18.375C27 17.8937 26.6063 17.5 26.125 17.5ZM26.125 3.5H25.25V8.75H26.125C26.6063 8.75 27 8.35625 27 7.875V4.375C27 3.89156 26.6063 3.5 26.125 3.5ZM20 0H4.25C2.3168 0 0.75 1.5668 0.75 3.5V24.5C0.75 26.4332 2.3168 28 4.25 28H20C21.9332 28 23.5 26.4332 23.5 24.5V3.5C23.5 1.5668 21.9305 0 20 0ZM21.75 24.5C21.75 25.4647 20.9647 26.25 20 26.25H4.25C3.28531 26.25 2.5 25.4647 2.5 24.5V3.5C2.5 2.53531 3.28531 1.75 4.25 1.75H20C20.9647 1.75 21.75 2.53531 21.75 3.5V24.5Z" fill="#333333"/>
</svg>
