<svg width="20" height="20" viewBox="0 0 20 20" fill="none" xmlns="http://www.w3.org/2000/svg">
<path d="M10.1453 0.152054C4.71524 0.152054 0.297363 4.56993 0.297363 10C0.297363 15.4301 4.71524 19.8479 10.1453 19.8479C15.5754 19.8479 19.9933 15.4301 19.9933 10C19.9933 4.56993 15.5754 0.152054 10.1453 0.152054ZM5.69097 16.393C6.42989 14.6166 8.1766 13.4245 10.1453 13.4245C12.114 13.4245 13.8611 14.6166 14.6 16.393C13.3362 17.2762 11.8007 17.7963 10.1453 17.7963C8.48996 17.7963 6.95443 17.2762 5.69097 16.393ZM8.27879 9.50632V9.12084C8.27879 8.0914 9.11628 7.25431 10.1453 7.25431C11.1743 7.25431 12.0118 8.0914 12.0118 9.12084V9.50632C12.0118 10.5354 11.1743 11.3728 10.1453 11.3728C9.11628 11.3728 8.27879 10.5354 8.27879 9.50632ZM16.1737 14.9376C15.4788 13.6729 14.4049 12.6672 13.1214 12.0505C13.7081 11.3652 14.0635 10.4769 14.0635 9.50632V9.12084C14.0635 6.96019 12.3056 5.20265 10.1453 5.20265C7.98506 5.20265 6.22713 6.96019 6.22713 9.12084V9.50632C6.22713 10.4769 6.58256 11.3652 7.16921 12.0505C5.88572 12.6668 4.81181 13.6729 4.11697 14.9376C3.013 13.592 2.34902 11.8721 2.34902 10C2.34902 5.70114 5.84645 2.20371 10.1453 2.20371C14.4442 2.20371 17.9416 5.70114 17.9416 10C17.9416 11.8721 17.2776 13.592 16.1737 14.9376Z" fill="#4A47A3"/>
</svg>
