<svg width="22" height="22" viewBox="0 0 22 22" fill="none" xmlns="http://www.w3.org/2000/svg">
<path d="M15.5848 0.830166C16.659 -0.243967 18.4035 -0.243967 19.4777 0.830166L21.1707 2.52442C22.2449 3.59821 22.2449 5.34103 21.1707 6.41524L19.091 8.49493L13.5051 2.90985L15.5848 0.830166ZM18.1199 9.46603L8.0996 19.482C7.65273 19.9289 7.09843 20.2598 6.49257 20.4359L1.32214 21.957C0.960342 22.0645 0.568897 21.9656 0.302061 21.6606C0.0352161 21.4328 -0.0645488 21.0418 0.0419278 20.6766L1.56276 15.5074C1.74151 14.9016 2.06937 14.3473 2.51667 13.9004L12.534 3.88181L18.1199 9.46603Z" fill="#709FB0"/>
</svg>
