<svg width="20" height="20" viewBox="0 0 20 20" fill="none" xmlns="http://www.w3.org/2000/svg">
<path d="M19.1586 2.524L17.4759 0.841333C16.913 0.280496 16.1798 0 15.4416 0C14.7069 0 13.9722 0.280393 13.4113 0.841333L2.33707 11.9202C1.9064 12.3047 1.68595 12.7917 1.5629 13.3198L0.327303 18.8262C0.235018 19.2825 0.588778 19.6875 0.983553 19.6875C1.03052 19.6875 1.0785 19.6828 1.12695 19.6731C1.12695 19.6731 4.92244 18.8676 6.6333 18.4652C7.15112 18.3433 7.61409 18.0827 7.98989 17.7069L19.1154 6.5814C20.2814 5.46021 20.2763 3.64526 19.1586 2.524ZM17.4206 4.83984L6.29508 15.9653C6.23868 16.0217 6.18228 16.0525 6.11563 16.0679C5.41324 16.2333 4.33914 16.4707 3.3317 16.6903L3.96795 13.8602C3.98282 13.7864 4.01871 13.7146 4.07511 13.6633L15.1544 2.58398C15.2519 2.48196 15.3647 2.46094 15.4416 2.46094C15.5185 2.46094 15.632 2.48176 15.7312 2.58101L17.4139 4.26419C17.5795 4.42661 17.5795 4.67937 17.4206 4.83984Z" fill="#0C646E"/>
</svg>
