<svg width="92" height="50" viewBox="0 0 92 50" fill="none" xmlns="http://www.w3.org/2000/svg">
<path d="M77.4063 19.3886C77.4063 20.5598 77.1784 21.5297 76.7227 22.2983C76.2853 23.0669 75.7202 23.68 75.0276 24.1375C74.3349 24.6133 73.5512 24.9427 72.6762 25.1257C71.8195 25.3087 70.972 25.4002 70.1335 25.4002H68.5204V22.7101H70.1062C70.6165 22.7101 71.1178 22.6643 71.6099 22.5728C72.1203 22.4813 72.576 22.3166 72.977 22.0787C73.3598 21.8225 73.6696 21.484 73.9066 21.0631C74.1618 20.6238 74.2894 20.0657 74.2894 19.3886C74.2894 18.7847 74.1527 18.2814 73.8792 17.8788C73.6058 17.4762 73.2595 17.1468 72.8403 16.8906C72.4028 16.6344 71.9198 16.4514 71.3912 16.3416C70.8626 16.2318 70.334 16.1769 69.8054 16.1769H67.5361V33.2784H64.5833V13.5417H69.8328C70.7441 13.5417 71.6464 13.6332 72.5395 13.8162C73.4509 13.9992 74.262 14.3103 74.9729 14.7495C75.702 15.207 76.2853 15.8109 76.7227 16.5612C77.1784 17.3115 77.4063 18.254 77.4063 19.3886Z" fill="#4A47A3"/>
<path d="M91.6666 16.2044H86.171V33.3333H83.1635V16.2044H77.7226V13.5966H91.6666V16.2044Z" fill="#4A47A3"/>
<path d="M2.08325 5.30303C2.08325 2.37425 4.4575 0 7.38628 0H46.7802C49.709 0 52.0833 2.37425 52.0833 5.30303V44.697C52.0833 47.6258 49.709 50 46.7802 50H7.38628C4.4575 50 2.08325 47.6258 2.08325 44.697V5.30303Z" fill="#4A47A3"/>
<g clip-path="url(#clip0_693_12)">
<path d="M36.6792 17.9689C34.5002 17.9689 32.7335 19.7179 32.7335 21.8751C32.7335 23.4786 33.7106 24.8526 35.1064 25.4547V29.2974C35.1064 32.0928 32.628 34.3755 29.5824 34.3755C26.6231 34.3755 24.1915 32.2222 24.0633 29.5303C27.609 28.7989 30.3661 25.6495 30.3661 21.8312V14.2868C30.3661 13.7311 29.9641 13.2428 29.4152 13.1393L26.3119 12.5235C25.6707 12.3953 25.0522 12.805 24.923 13.44L24.7632 14.2086C24.6337 14.8434 25.0498 15.4581 25.6909 15.5866L27.2046 15.8824V21.8116C27.2046 24.3936 25.1267 26.5299 22.5126 26.5543C19.8799 26.5787 17.7378 24.4762 17.7378 21.8702L17.7344 15.8873L19.2495 15.5889C19.8907 15.4668 20.3055 14.8492 20.1758 14.2144L20.0234 13.446C19.9001 12.8112 19.2762 12.4005 18.635 12.529L15.5342 13.1344C14.9852 13.2443 14.5833 13.7252 14.5833 14.2868V21.8746C14.5833 25.6466 17.3014 28.8082 20.9013 29.5308C21.0296 33.9502 24.8717 37.5 29.5769 37.5C34.3611 37.5 38.2575 33.8199 38.2575 29.2969V25.4542C39.6498 24.8507 40.6249 23.4786 40.6249 21.8775C40.6249 19.7169 38.8592 17.9689 36.6792 17.9689ZM36.6792 23.047C36.0257 23.047 35.4955 22.5221 35.4955 21.8751C35.4955 21.2281 36.0232 20.7032 36.6792 20.7032C37.3352 20.7032 37.8629 21.2257 37.8629 21.8751C37.8629 22.5245 37.3352 23.047 36.6792 23.047Z" fill="#FEFEFF"/>
</g>
<defs>
<clipPath id="clip0_693_12">
<rect width="39.5833" height="35.4167" fill="white" transform="translate(0 7.29167)"/>
</clipPath>
</defs>
</svg>
