<svg width="17" height="18" viewBox="0 0 17 18" fill="none" xmlns="http://www.w3.org/2000/svg">
<g clip-path="url(#clip0_755_7957)">
<path d="M6.55208 0H1.23958C0.556042 0 0 0.58875 0 1.3125V4.6875C0 5.41125 0.556042 6 1.23958 6H6.55208C7.23563 6 7.79167 5.41125 7.79167 4.6875V1.3125C7.79167 0.58875 7.23563 0 6.55208 0Z" fill="#FEFEFF"/>
<path d="M6.55208 7.5H1.23958C0.556042 7.5 0 8.08875 0 8.8125V16.6875C0 17.4113 0.556042 18 1.23958 18H6.55208C7.23563 18 7.79167 17.4113 7.79167 16.6875V8.8125C7.79167 8.08875 7.23563 7.5 6.55208 7.5Z" fill="#FEFEFF"/>
<path d="M15.7603 12H10.4478C9.76429 12 9.20825 12.5888 9.20825 13.3125V16.6875C9.20825 17.4113 9.76429 18 10.4478 18H15.7603C16.4439 18 16.9999 17.4113 16.9999 16.6875V13.3125C16.9999 12.5888 16.4439 12 15.7603 12Z" fill="#FEFEFF"/>
<path d="M15.7603 -1.90735e-06H10.4478C9.76429 -1.90735e-06 9.20825 0.588748 9.20825 1.3125V9.1875C9.20825 9.91125 9.76429 10.5 10.4478 10.5H15.7603C16.4439 10.5 16.9999 9.91125 16.9999 9.1875V1.3125C16.9999 0.588748 16.4439 -1.90735e-06 15.7603 -1.90735e-06Z" fill="#FEFEFF"/>
</g>
<defs>
<clipPath id="clip0_755_7957">
<rect width="17" height="18" fill="white"/>
</clipPath>
</defs>
</svg>
