<svg width="80" height="27" viewBox="0 0 80 27" fill="none" xmlns="http://www.w3.org/2000/svg">
<path d="M0.394474 27.0001C0.342659 27.0001 0.291346 26.9898 0.24347 26.9697C0.195593 26.9497 0.152092 26.9203 0.115456 26.8832C0.0788198 26.8461 0.0497668 26.802 0.0299591 26.7535C0.0101515 26.7051 -2.21981e-05 26.6531 2.01124e-05 26.6006V20.0874C-0.000506368 20.0346 0.00930817 19.9823 0.0288962 19.9333C0.0484843 19.8844 0.0774572 19.8399 0.11414 19.8024C0.150822 19.7649 0.194487 19.7351 0.242608 19.7148C0.290729 19.6944 0.342353 19.684 0.394494 19.684C0.446635 19.684 0.498258 19.6944 0.546379 19.7148C0.594501 19.7351 0.638165 19.7649 0.674848 19.8024C0.71153 19.8399 0.740503 19.8844 0.760091 19.9333C0.779679 19.9823 0.789494 20.0346 0.788967 20.0874V26.6006C0.788983 26.6531 0.77879 26.705 0.75897 26.7535C0.739151 26.802 0.710093 26.846 0.673458 26.8831C0.636823 26.9202 0.593328 26.9496 0.545458 26.9697C0.497589 26.9898 0.446284 27.0001 0.394474 27.0001Z" fill="#4A47A3" fill-opacity="0.2"/>
<path d="M2.28058 26.9999C2.22877 27 2.17745 26.9897 2.12958 26.9696C2.0817 26.9496 2.0382 26.9201 2.00156 26.883C1.96493 26.846 1.93588 26.8019 1.91607 26.7534C1.89626 26.7049 1.88609 26.653 1.88613 26.6005V14.8596C1.8856 14.8068 1.89542 14.7545 1.915 14.7055C1.93459 14.6566 1.96357 14.6121 2.00025 14.5746C2.03693 14.5371 2.0806 14.5073 2.12872 14.487C2.17684 14.4666 2.22846 14.4562 2.2806 14.4562C2.33274 14.4562 2.38437 14.4666 2.43249 14.487C2.48061 14.5073 2.52427 14.5371 2.56096 14.5746C2.59764 14.6121 2.62661 14.6566 2.6462 14.7055C2.66579 14.7545 2.6756 14.8068 2.67508 14.8596V26.6005C2.67509 26.653 2.66489 26.7049 2.64507 26.7534C2.62525 26.8019 2.59619 26.8459 2.55955 26.883C2.52292 26.9201 2.47943 26.9495 2.43156 26.9696C2.38369 26.9896 2.33239 27 2.28058 26.9999Z" fill="#4A47A3" fill-opacity="0.2"/>
<path d="M4.16649 26.9999C4.11468 27 4.06337 26.9896 4.0155 26.9696C3.96763 26.9495 3.92414 26.9201 3.8875 26.883C3.85087 26.8459 3.82181 26.8019 3.80199 26.7534C3.78217 26.7049 3.77198 26.653 3.77199 26.6005V12.0342C3.77147 11.9814 3.78128 11.929 3.80087 11.8801C3.82046 11.8312 3.84943 11.7867 3.88611 11.7492C3.92279 11.7116 3.96646 11.6819 4.01458 11.6615C4.0627 11.6412 4.11433 11.6307 4.16647 11.6307C4.21861 11.6307 4.27023 11.6412 4.31835 11.6615C4.36647 11.6819 4.41014 11.7116 4.44682 11.7492C4.4835 11.7867 4.51248 11.8312 4.53206 11.8801C4.55165 11.929 4.56147 11.9814 4.56094 12.0342V26.6005C4.56098 26.653 4.55081 26.7049 4.531 26.7534C4.51119 26.8019 4.48214 26.8459 4.4455 26.883C4.40887 26.9201 4.36537 26.9496 4.31749 26.9696C4.26961 26.9897 4.2183 27 4.16649 26.9999Z" fill="#4A47A3" fill-opacity="0.2"/>
<path d="M6.05231 27C6.0005 27.0001 5.94918 26.9897 5.90131 26.9697C5.85343 26.9496 5.80993 26.9202 5.77329 26.8831C5.73666 26.846 5.7076 26.802 5.6878 26.7535C5.66799 26.705 5.65781 26.6531 5.65786 26.6006V10.4144C5.65733 10.3616 5.66715 10.3093 5.68673 10.2604C5.70632 10.2114 5.73529 10.1669 5.77198 10.1294C5.80866 10.0919 5.85232 10.0621 5.90044 10.0418C5.94857 10.0215 6.00019 10.011 6.05233 10.011C6.10447 10.011 6.15609 10.0215 6.20422 10.0418C6.25234 10.0621 6.296 10.0919 6.33268 10.1294C6.36937 10.1669 6.39834 10.2114 6.41793 10.2604C6.43751 10.3093 6.44733 10.3616 6.4468 10.4144V26.6006C6.44682 26.6531 6.43663 26.705 6.41681 26.7535C6.39699 26.8019 6.36793 26.846 6.33129 26.8831C6.29466 26.9202 6.25116 26.9496 6.20329 26.9696C6.15543 26.9897 6.10412 27 6.05231 27Z" fill="#4A47A3" fill-opacity="0.2"/>
<path d="M7.93819 27C7.88639 27.0001 7.83508 26.9897 7.78722 26.9697C7.73935 26.9496 7.69586 26.9202 7.65922 26.8831C7.62259 26.846 7.59353 26.802 7.57371 26.7535C7.55389 26.705 7.54369 26.6531 7.5437 26.6006V9.57862C7.5437 9.47268 7.58526 9.37109 7.65925 9.29619C7.73323 9.22128 7.83357 9.1792 7.93819 9.1792C8.04282 9.1792 8.14316 9.22128 8.21714 9.29619C8.29113 9.37109 8.33269 9.47268 8.33269 9.57862V26.6006C8.3327 26.6531 8.3225 26.705 8.30268 26.7535C8.28286 26.802 8.2538 26.846 8.21717 26.8831C8.18053 26.9202 8.13704 26.9496 8.08917 26.9697C8.04131 26.9897 7.99 27.0001 7.93819 27Z" fill="#4A47A3" fill-opacity="0.2"/>
<path d="M9.82445 27C9.77264 27 9.72133 26.9897 9.67346 26.9696C9.62559 26.9496 9.5821 26.9202 9.54546 26.8831C9.50883 26.846 9.47977 26.8019 9.45995 26.7535C9.44013 26.705 9.42994 26.653 9.42995 26.6006V9.12965C9.42943 9.07686 9.43924 9.02449 9.45883 8.97556C9.47842 8.92664 9.50739 8.88213 9.54407 8.84461C9.58075 8.80709 9.62442 8.77731 9.67254 8.75699C9.72066 8.73666 9.77228 8.7262 9.82443 8.7262C9.87657 8.7262 9.92819 8.73666 9.97631 8.75699C10.0244 8.77731 10.0681 8.80709 10.1048 8.84461C10.1415 8.88213 10.1704 8.92664 10.19 8.97556C10.2096 9.02449 10.2194 9.07686 10.2189 9.12965V26.6006C10.2189 26.6531 10.2088 26.705 10.189 26.7535C10.1692 26.802 10.1401 26.846 10.1035 26.8831C10.0668 26.9202 10.0233 26.9496 9.97545 26.9697C9.92757 26.9897 9.87626 27 9.82445 27Z" fill="#4A47A3" fill-opacity="0.2"/>
<path d="M11.7103 27C11.6585 27 11.6071 26.9897 11.5593 26.9697C11.5114 26.9496 11.4679 26.9202 11.4313 26.8831C11.3946 26.846 11.3656 26.802 11.3458 26.7535C11.3259 26.705 11.3158 26.6531 11.3158 26.6006V9.12965C11.3153 9.07686 11.3251 9.02449 11.3447 8.97556C11.3643 8.92664 11.3933 8.88213 11.4299 8.84461C11.4666 8.80709 11.5103 8.77731 11.5584 8.75699C11.6065 8.73666 11.6581 8.7262 11.7103 8.7262C11.7624 8.7262 11.8141 8.73666 11.8622 8.75699C11.9103 8.77731 11.954 8.80709 11.9906 8.84461C12.0273 8.88213 12.0563 8.92664 12.0759 8.97556C12.0955 9.02449 12.1053 9.07686 12.1048 9.12965V26.6006C12.1048 26.653 12.0946 26.705 12.0748 26.7535C12.0549 26.8019 12.0259 26.846 11.9892 26.883C11.9526 26.9201 11.9091 26.9496 11.8612 26.9696C11.8134 26.9897 11.7621 27 11.7103 27Z" fill="#4A47A3" fill-opacity="0.2"/>
<path d="M13.5964 27C13.5446 27.0001 13.4933 26.9897 13.4454 26.9697C13.3976 26.9496 13.3541 26.9202 13.3174 26.8831C13.2808 26.846 13.2517 26.802 13.2319 26.7535C13.2121 26.705 13.2019 26.6531 13.2019 26.6006V9.43568C13.2014 9.38289 13.2112 9.33052 13.2308 9.28159C13.2504 9.23267 13.2794 9.18816 13.316 9.15064C13.3527 9.11312 13.3964 9.08334 13.4445 9.06302C13.4926 9.04269 13.5443 9.03223 13.5964 9.03223C13.6485 9.03223 13.7002 9.04269 13.7483 9.06302C13.7964 9.08334 13.8401 9.11312 13.8768 9.15064C13.9134 9.18816 13.9424 9.23267 13.962 9.28159C13.9816 9.33052 13.9914 9.38289 13.9909 9.43568V26.6006C13.9909 26.6531 13.9807 26.705 13.9609 26.7535C13.9411 26.802 13.9121 26.846 13.8754 26.8831C13.8388 26.9202 13.7953 26.9497 13.7474 26.9697C13.6995 26.9898 13.6482 27.0001 13.5964 27Z" fill="#4A47A3" fill-opacity="0.2"/>
<path d="M15.4822 27C15.4304 27.0001 15.3791 26.9897 15.3312 26.9697C15.2834 26.9496 15.2399 26.9202 15.2032 26.8831C15.1666 26.846 15.1375 26.802 15.1177 26.7535C15.0979 26.705 15.0877 26.6531 15.0878 26.6006V10.4144C15.0873 10.3616 15.0971 10.3093 15.1167 10.2604C15.1363 10.2114 15.1652 10.1669 15.2019 10.1294C15.2386 10.0919 15.2823 10.0621 15.3304 10.0418C15.3785 10.0215 15.4301 10.011 15.4823 10.011C15.5344 10.011 15.586 10.0215 15.6341 10.0418C15.6823 10.0621 15.7259 10.0919 15.7626 10.1294C15.7993 10.1669 15.8283 10.2114 15.8479 10.2604C15.8674 10.3093 15.8773 10.3616 15.8767 10.4144V26.6006C15.8768 26.6531 15.8666 26.705 15.8467 26.7535C15.8269 26.8019 15.7979 26.846 15.7612 26.8831C15.7246 26.9202 15.6811 26.9496 15.6332 26.9696C15.5854 26.9897 15.5341 27 15.4822 27Z" fill="#4A47A3" fill-opacity="0.2"/>
<path d="M17.3681 27.0001C17.3163 27.0001 17.265 26.9898 17.2171 26.9698C17.1692 26.9497 17.1257 26.9203 17.089 26.8832C17.0524 26.8461 17.0233 26.8021 17.0035 26.7536C16.9837 26.7051 16.9735 26.6531 16.9735 26.6006V11.8486C16.973 11.7959 16.9828 11.7435 17.0024 11.6946C17.022 11.6456 17.051 11.6011 17.0876 11.5636C17.1243 11.5261 17.168 11.4963 17.2161 11.476C17.2642 11.4557 17.3159 11.4452 17.368 11.4452C17.4201 11.4452 17.4718 11.4557 17.5199 11.476C17.568 11.4963 17.6117 11.5261 17.6484 11.5636C17.685 11.6011 17.714 11.6456 17.7336 11.6946C17.7532 11.7435 17.763 11.7959 17.7625 11.8486V26.6006C17.7625 26.6531 17.7523 26.705 17.7325 26.7535C17.7127 26.8019 17.6836 26.846 17.647 26.883C17.6104 26.9201 17.5669 26.9496 17.5191 26.9696C17.4712 26.9897 17.4199 27.0001 17.3681 27.0001Z" fill="#4A47A3" fill-opacity="0.2"/>
<path d="M19.2542 27C19.1496 27 19.0493 26.9579 18.9754 26.883C18.9015 26.8081 18.86 26.7065 18.86 26.6006V14.3109C18.8595 14.2581 18.8693 14.2058 18.8889 14.1568C18.9085 14.1079 18.9374 14.0634 18.9741 14.0259C19.0108 13.9884 19.0545 13.9586 19.1026 13.9383C19.1507 13.9179 19.2023 13.9075 19.2545 13.9075C19.3066 13.9075 19.3582 13.9179 19.4064 13.9383C19.4545 13.9586 19.4982 13.9884 19.5348 14.0259C19.5715 14.0634 19.6005 14.1079 19.6201 14.1568C19.6397 14.2058 19.6495 14.2581 19.649 14.3109V26.6006C19.649 26.6531 19.6388 26.7051 19.619 26.7536C19.5992 26.8021 19.5701 26.8461 19.5334 26.8833C19.4967 26.9204 19.4532 26.9498 19.4053 26.9698C19.3574 26.9898 19.306 27.0001 19.2542 27Z" fill="#4A47A3" fill-opacity="0.2"/>
<path d="M21.1402 27C21.0884 27.0001 21.0371 26.9898 20.9892 26.9697C20.9413 26.9496 20.8978 26.9202 20.8612 26.8831C20.8245 26.846 20.7955 26.802 20.7757 26.7535C20.7559 26.705 20.7457 26.6531 20.7457 26.6006V17.5939C20.7452 17.5411 20.755 17.4887 20.7746 17.4398C20.7942 17.3909 20.8232 17.3464 20.8599 17.3088C20.8965 17.2713 20.9402 17.2415 20.9883 17.2212C21.0365 17.2009 21.0881 17.1904 21.1402 17.1904C21.1924 17.1904 21.244 17.2009 21.2921 17.2212C21.3402 17.2415 21.3839 17.2713 21.4206 17.3088C21.4573 17.3464 21.4862 17.3909 21.5058 17.4398C21.5254 17.4887 21.5352 17.5411 21.5347 17.5939V26.6006C21.5347 26.6531 21.5245 26.705 21.5047 26.7535C21.4849 26.8019 21.4558 26.846 21.4192 26.8831C21.3825 26.9202 21.339 26.9496 21.2912 26.9697C21.2433 26.9897 21.192 27 21.1402 27Z" fill="#4A47A3" fill-opacity="0.2"/>
<path d="M23.0263 27C22.9745 27 22.9232 26.9897 22.8754 26.9696C22.8275 26.9495 22.784 26.9201 22.7474 26.883C22.7107 26.8459 22.6817 26.8019 22.6619 26.7534C22.642 26.705 22.6318 26.653 22.6319 26.6006V20.7301C22.6313 20.6773 22.6411 20.6249 22.6607 20.576C22.6803 20.5271 22.7093 20.4826 22.746 20.4451C22.7827 20.4076 22.8263 20.3778 22.8744 20.3575C22.9226 20.3371 22.9742 20.3267 23.0263 20.3267C23.0785 20.3267 23.1301 20.3371 23.1782 20.3575C23.2263 20.3778 23.27 20.4076 23.3067 20.4451C23.3434 20.4826 23.3723 20.5271 23.3919 20.576C23.4115 20.6249 23.4213 20.6773 23.4208 20.7301V26.6006C23.4208 26.653 23.4107 26.705 23.3909 26.7535C23.371 26.8019 23.342 26.846 23.3054 26.8831C23.2687 26.9202 23.2252 26.9496 23.1773 26.9697C23.1295 26.9897 23.0782 27 23.0263 27Z" fill="#4A47A3" fill-opacity="0.2"/>
<path d="M24.9121 27.0001C24.8602 27.0001 24.8089 26.9898 24.761 26.9697C24.7132 26.9497 24.6697 26.9202 24.633 26.8832C24.5964 26.8461 24.5673 26.802 24.5475 26.7535C24.5277 26.7051 24.5176 26.6531 24.5176 26.6006V22.7233C24.5171 22.6705 24.5269 22.6181 24.5465 22.5692C24.5661 22.5203 24.595 22.4758 24.6317 22.4382C24.6684 22.4007 24.7121 22.3709 24.7602 22.3506C24.8083 22.3303 24.8599 22.3198 24.9121 22.3198C24.9642 22.3198 25.0158 22.3303 25.064 22.3506C25.1121 22.3709 25.1557 22.4007 25.1924 22.4382C25.2291 22.4758 25.2581 22.5203 25.2777 22.5692C25.2973 22.6181 25.3071 22.6705 25.3065 22.7233V26.6006C25.3066 26.6531 25.2964 26.705 25.2765 26.7535C25.2567 26.802 25.2277 26.846 25.191 26.8831C25.1544 26.9202 25.1109 26.9496 25.063 26.9697C25.0152 26.9897 24.9639 27.0001 24.9121 27.0001Z" fill="#4A47A3" fill-opacity="0.2"/>
<path d="M26.798 26.9999C26.7462 27 26.6949 26.9897 26.647 26.9696C26.5991 26.9496 26.5556 26.9201 26.519 26.883C26.4824 26.8459 26.4533 26.8019 26.4335 26.7534C26.4137 26.7049 26.4035 26.653 26.4036 26.6005V24.2416C26.4046 24.1363 26.4466 24.0358 26.5205 23.9618C26.5944 23.8877 26.6941 23.8462 26.798 23.8462C26.902 23.8462 27.0017 23.8877 27.0756 23.9618C27.1494 24.0358 27.1915 24.1363 27.1925 24.2416V26.6005C27.1925 26.653 27.1823 26.7049 27.1625 26.7534C27.1427 26.8019 27.1136 26.8459 27.077 26.883C27.0404 26.9201 26.9969 26.9495 26.949 26.9696C26.9011 26.9896 26.8498 27 26.798 26.9999Z" fill="#4A47A3" fill-opacity="0.2"/>
<path d="M28.6842 27C28.6324 27 28.5811 26.9897 28.5332 26.9696C28.4853 26.9495 28.4418 26.9201 28.4052 26.883C28.3686 26.8459 28.3395 26.8019 28.3197 26.7534C28.2999 26.705 28.2897 26.653 28.2897 26.6006V24.9086C28.2892 24.8558 28.299 24.8034 28.3186 24.7545C28.3382 24.7056 28.3671 24.6611 28.4038 24.6235C28.4405 24.586 28.4842 24.5562 28.5323 24.5359C28.5804 24.5156 28.632 24.5051 28.6842 24.5051C28.7363 24.5051 28.7879 24.5156 28.8361 24.5359C28.8842 24.5562 28.9278 24.586 28.9645 24.6235C29.0012 24.6611 29.0302 24.7056 29.0498 24.7545C29.0694 24.8034 29.0792 24.8558 29.0786 24.9086V26.6006C29.0787 26.653 29.0685 26.705 29.0487 26.7534C29.0289 26.8019 28.9998 26.846 28.9632 26.8831C28.9266 26.9202 28.8831 26.9496 28.8352 26.9696C28.7873 26.9897 28.736 27 28.6842 27Z" fill="#4A47A3" fill-opacity="0.2"/>
<path d="M30.57 27C30.5182 27 30.4669 26.9897 30.419 26.9696C30.3711 26.9496 30.3276 26.9202 30.291 26.8831C30.2544 26.846 30.2253 26.8019 30.2055 26.7534C30.1857 26.705 30.1755 26.653 30.1756 26.6005V25.2264C30.175 25.1737 30.1848 25.1213 30.2044 25.0724C30.224 25.0234 30.253 24.9789 30.2897 24.9414C30.3264 24.9039 30.37 24.8741 30.4181 24.8538C30.4663 24.8335 30.5179 24.823 30.57 24.823C30.6222 24.823 30.6738 24.8335 30.7219 24.8538C30.77 24.8741 30.8137 24.9039 30.8504 24.9414C30.8871 24.9789 30.916 25.0234 30.9356 25.0724C30.9552 25.1213 30.965 25.1737 30.9645 25.2264V26.6005C30.9645 26.653 30.9543 26.7049 30.9345 26.7534C30.9147 26.8019 30.8856 26.8459 30.849 26.883C30.8124 26.9201 30.7689 26.9495 30.721 26.9696C30.6731 26.9897 30.6218 27 30.57 27Z" fill="#4A47A3" fill-opacity="0.2"/>
<path d="M32.4562 27C32.4043 27 32.353 26.9897 32.3052 26.9696C32.2573 26.9496 32.2138 26.9201 32.1772 26.8831C32.1406 26.846 32.1115 26.8019 32.0917 26.7535C32.0718 26.705 32.0617 26.6531 32.0617 26.6006V25.5471C32.0611 25.4943 32.071 25.442 32.0905 25.393C32.1101 25.3441 32.1391 25.2996 32.1758 25.2621C32.2125 25.2246 32.2561 25.1948 32.3043 25.1745C32.3524 25.1541 32.404 25.1437 32.4561 25.1437C32.5083 25.1437 32.5599 25.1541 32.608 25.1745C32.6561 25.1948 32.6998 25.2246 32.7365 25.2621C32.7732 25.2996 32.8021 25.3441 32.8217 25.393C32.8413 25.442 32.8511 25.4943 32.8506 25.5471V26.6006C32.8507 26.6531 32.8405 26.705 32.8207 26.7535C32.8009 26.802 32.7718 26.846 32.7352 26.8831C32.6985 26.9202 32.655 26.9496 32.6072 26.9697C32.5593 26.9897 32.508 27.0001 32.4562 27Z" fill="#4A47A3" fill-opacity="0.2"/>
<path d="M34.342 27C34.2902 27 34.2389 26.9897 34.191 26.9696C34.1431 26.9496 34.0996 26.9202 34.063 26.8831C34.0263 26.846 33.9973 26.8019 33.9775 26.7534C33.9577 26.705 33.9475 26.653 33.9475 26.6005V25.2264C33.947 25.1737 33.9568 25.1213 33.9764 25.0724C33.996 25.0234 34.025 24.9789 34.0617 24.9414C34.0983 24.9039 34.142 24.8741 34.1901 24.8538C34.2382 24.8335 34.2899 24.823 34.342 24.823C34.3941 24.823 34.4458 24.8335 34.4939 24.8538C34.542 24.8741 34.5857 24.9039 34.6224 24.9414C34.659 24.9789 34.688 25.0234 34.7076 25.0724C34.7272 25.1213 34.737 25.1737 34.7365 25.2264V26.6005C34.7365 26.653 34.7263 26.7049 34.7065 26.7534C34.6867 26.8019 34.6576 26.8459 34.621 26.883C34.5843 26.9201 34.5408 26.9495 34.493 26.9696C34.4451 26.9897 34.3938 27 34.342 27Z" fill="#4A47A3" fill-opacity="0.2"/>
<path d="M36.2282 27C36.1763 27.0001 36.125 26.9898 36.0771 26.9697C36.0292 26.9496 35.9857 26.9202 35.9491 26.8831C35.9124 26.846 35.8834 26.802 35.8635 26.7535C35.8437 26.705 35.8335 26.6531 35.8335 26.6006V24.4878C35.8335 24.3819 35.8751 24.2803 35.949 24.2054C36.023 24.1305 36.1234 24.0884 36.228 24.0884C36.3326 24.0884 36.433 24.1305 36.5069 24.2054C36.5809 24.2803 36.6225 24.3819 36.6225 24.4878V26.6006C36.6225 26.6531 36.6123 26.705 36.5925 26.7534C36.5727 26.8019 36.5436 26.8459 36.507 26.883C36.4704 26.9201 36.4269 26.9495 36.3791 26.9696C36.3312 26.9897 36.2799 27 36.2282 27Z" fill="#4A47A3" fill-opacity="0.2"/>
<path d="M38.114 27C38.0622 27 38.0109 26.9897 37.963 26.9696C37.9151 26.9496 37.8716 26.9202 37.835 26.8831C37.7984 26.846 37.7693 26.8019 37.7495 26.7535C37.7297 26.705 37.7195 26.6531 37.7195 26.6006V22.9694C37.719 22.9166 37.7288 22.8642 37.7484 22.8153C37.768 22.7664 37.7969 22.7219 37.8336 22.6843C37.8703 22.6468 37.914 22.617 37.9621 22.5967C38.0102 22.5764 38.0618 22.5659 38.114 22.5659C38.1661 22.5659 38.2177 22.5764 38.2659 22.5967C38.314 22.617 38.3576 22.6468 38.3943 22.6843C38.431 22.7219 38.46 22.7664 38.4796 22.8153C38.4992 22.8642 38.509 22.9166 38.5085 22.9694V26.6006C38.5085 26.6531 38.4983 26.705 38.4785 26.7535C38.4587 26.802 38.4297 26.846 38.393 26.8831C38.3564 26.9202 38.3129 26.9496 38.265 26.9697C38.2171 26.9897 38.1658 27.0001 38.114 27Z" fill="#4A47A3" fill-opacity="0.2"/>
<path d="M39.9999 27C39.9481 27.0001 39.8968 26.9898 39.8489 26.9697C39.801 26.9496 39.7575 26.9202 39.7209 26.8831C39.6843 26.846 39.6552 26.802 39.6354 26.7535C39.6156 26.705 39.6054 26.6531 39.6055 26.6006V20.4554C39.6065 20.3502 39.6485 20.2497 39.7224 20.1756C39.7963 20.1016 39.896 20.0601 39.9999 20.0601C40.1039 20.0601 40.2036 20.1016 40.2775 20.1756C40.3513 20.2497 40.3934 20.3502 40.3944 20.4554V26.6006C40.3944 26.6531 40.3842 26.705 40.3644 26.7535C40.3446 26.802 40.3155 26.846 40.2789 26.8831C40.2423 26.9202 40.1988 26.9496 40.1509 26.9697C40.103 26.9897 40.0517 27.0001 39.9999 27Z" fill="#4A47A3" fill-opacity="0.2"/>
<path d="M41.886 27.0001C41.8342 27.0001 41.7829 26.9897 41.735 26.9697C41.6871 26.9496 41.6436 26.9202 41.607 26.8831C41.5704 26.846 41.5413 26.802 41.5215 26.7535C41.5017 26.705 41.4915 26.6531 41.4915 26.6006V17.3657C41.4909 17.3129 41.5008 17.2606 41.5204 17.2116C41.5399 17.1627 41.5689 17.1182 41.6056 17.0807C41.6423 17.0432 41.6859 17.0134 41.7341 16.9931C41.7822 16.9727 41.8338 16.9623 41.886 16.9623C41.9381 16.9623 41.9897 16.9727 42.0378 16.9931C42.086 17.0134 42.1296 17.0432 42.1663 17.0807C42.203 17.1182 42.232 17.1627 42.2516 17.2116C42.2711 17.2606 42.281 17.3129 42.2804 17.3657V26.6006C42.2805 26.6531 42.2703 26.7051 42.2505 26.7535C42.2307 26.802 42.2016 26.8461 42.165 26.8832C42.1284 26.9203 42.0849 26.9497 42.037 26.9697C41.9891 26.9898 41.9378 27.0001 41.886 27.0001Z" fill="#4A47A3" fill-opacity="0.2"/>
<path d="M43.7719 27C43.7201 27 43.6688 26.9897 43.6209 26.9696C43.5731 26.9496 43.5296 26.9202 43.4929 26.8831C43.4563 26.846 43.4273 26.8019 43.4074 26.7535C43.3876 26.705 43.3774 26.653 43.3774 26.6006V12.5928C43.3785 12.4875 43.4205 12.387 43.4944 12.313C43.5682 12.2389 43.668 12.1974 43.7719 12.1974C43.8759 12.1974 43.9756 12.2389 44.0495 12.313C44.1233 12.387 44.1653 12.4875 44.1664 12.5928V26.6006C44.1664 26.6531 44.1563 26.705 44.1364 26.7535C44.1166 26.802 44.0876 26.846 44.051 26.8831C44.0143 26.9202 43.9708 26.9496 43.9229 26.9697C43.8751 26.9897 43.8237 27 43.7719 27Z" fill="#4A47A3" fill-opacity="0.2"/>
<path d="M45.658 27C45.6062 27.0001 45.5549 26.9897 45.5071 26.9697C45.4592 26.9496 45.4157 26.9202 45.3791 26.8831C45.3424 26.846 45.3134 26.802 45.2936 26.7535C45.2737 26.705 45.2635 26.6531 45.2635 26.6006V7.04724C45.2635 6.94131 45.3051 6.83972 45.3791 6.76481C45.4531 6.68991 45.5534 6.64783 45.658 6.64783C45.7627 6.64783 45.863 6.68991 45.937 6.76481C46.011 6.83972 46.0525 6.94131 46.0525 7.04724V26.6006C46.0525 26.6531 46.0423 26.705 46.0225 26.7535C46.0027 26.802 45.9736 26.846 45.937 26.8831C45.9004 26.9202 45.8569 26.9496 45.809 26.9697C45.7612 26.9897 45.7098 27.0001 45.658 27Z" fill="#4A47A3" fill-opacity="0.2"/>
<path d="M47.5439 27.0001C47.4921 27.0001 47.4408 26.9898 47.3929 26.9697C47.3451 26.9496 47.3016 26.9202 47.2649 26.8831C47.2283 26.846 47.1992 26.802 47.1794 26.7535C47.1596 26.705 47.1494 26.6531 47.1494 26.6006V2.90271C47.1505 2.79748 47.1925 2.69692 47.2664 2.62289C47.3402 2.54885 47.4399 2.50732 47.5439 2.50732C47.6478 2.50732 47.7476 2.54885 47.8214 2.62289C47.8953 2.69692 47.9373 2.79748 47.9384 2.90271V26.6006C47.9384 26.6531 47.9282 26.7051 47.9084 26.7535C47.8886 26.802 47.8596 26.8461 47.8229 26.8832C47.7863 26.9203 47.7428 26.9497 47.6949 26.9697C47.647 26.9898 47.5957 27.0001 47.5439 27.0001Z" fill="#4A47A3" fill-opacity="0.2"/>
<path d="M49.4299 27C49.378 27 49.3267 26.9897 49.2788 26.9697C49.231 26.9496 49.1875 26.9202 49.1508 26.8831C49.1142 26.846 49.0851 26.8019 49.0653 26.7535C49.0455 26.705 49.0354 26.653 49.0354 26.6006V0.80969C49.0364 0.704462 49.0785 0.603905 49.1523 0.529871C49.2262 0.455836 49.3259 0.414307 49.4299 0.414307C49.5338 0.414307 49.6335 0.455836 49.7074 0.529871C49.7813 0.603905 49.8233 0.704462 49.8243 0.80969V26.6006C49.8244 26.653 49.8142 26.705 49.7943 26.7534C49.7745 26.8019 49.7455 26.8459 49.7088 26.883C49.6722 26.9201 49.6287 26.9495 49.5808 26.9696C49.533 26.9897 49.4817 27 49.4299 27Z" fill="#4A47A3" fill-opacity="0.2"/>
<path d="M51.3159 27C51.2641 27 51.2128 26.9897 51.1649 26.9696C51.1171 26.9496 51.0736 26.9201 51.0369 26.883C51.0003 26.846 50.9712 26.8019 50.9514 26.7535C50.9316 26.705 50.9214 26.653 50.9214 26.6006V0.399421C50.9209 0.346632 50.9307 0.294261 50.9503 0.245337C50.9699 0.196412 50.9988 0.151905 51.0355 0.114387C51.0722 0.0768702 51.1159 0.0470879 51.164 0.0267624C51.2121 0.00643698 51.2637 -0.00402832 51.3159 -0.00402832C51.368 -0.00402832 51.4197 0.00643698 51.4678 0.0267624C51.5159 0.0470879 51.5596 0.0768702 51.5962 0.114387C51.6329 0.151905 51.6619 0.196412 51.6815 0.245337C51.7011 0.294261 51.7109 0.346632 51.7104 0.399421V26.6006C51.7104 26.653 51.7002 26.705 51.6804 26.7535C51.6606 26.802 51.6316 26.846 51.5949 26.8831C51.5583 26.9202 51.5148 26.9496 51.4669 26.9697C51.419 26.9897 51.3677 27 51.3159 27Z" fill="#4A47A3" fill-opacity="0.2"/>
<path d="M53.2019 27C53.1501 27 53.0988 26.9897 53.0509 26.9697C53.003 26.9496 52.9595 26.9202 52.9229 26.8831C52.8862 26.846 52.8572 26.8019 52.8374 26.7535C52.8175 26.705 52.8074 26.6531 52.8074 26.6006V1.00476C52.8084 0.89953 52.8504 0.798973 52.9243 0.724939C52.9982 0.650904 53.0979 0.609375 53.2018 0.609375C53.3058 0.609375 53.4055 0.650904 53.4794 0.724939C53.5532 0.798973 53.5953 0.89953 53.5963 1.00476V26.6006C53.5964 26.6531 53.5862 26.705 53.5664 26.7535C53.5466 26.802 53.5175 26.846 53.4809 26.8831C53.4442 26.9202 53.4007 26.9496 53.3529 26.9697C53.305 26.9898 53.2537 27.0001 53.2019 27Z" fill="#4A47A3" fill-opacity="0.2"/>
<path d="M55.0879 27C55.036 27 54.9847 26.9897 54.9369 26.9696C54.889 26.9496 54.8455 26.9202 54.8089 26.8831C54.7722 26.846 54.7432 26.8019 54.7234 26.7535C54.7035 26.705 54.6933 26.6531 54.6934 26.6006V3.84656C54.6934 3.74063 54.7349 3.63903 54.8089 3.56413C54.8829 3.48922 54.9832 3.44714 55.0879 3.44714C55.1925 3.44714 55.2928 3.48922 55.3668 3.56413C55.4408 3.63903 55.4823 3.74063 55.4823 3.84656V26.6006C55.4824 26.6531 55.4722 26.705 55.4523 26.7535C55.4325 26.8019 55.4035 26.846 55.3668 26.8831C55.3302 26.9202 55.2867 26.9496 55.2388 26.9696C55.191 26.9897 55.1397 27 55.0879 27Z" fill="#4A47A3" fill-opacity="0.2"/>
<path d="M56.974 27C56.9222 27 56.8709 26.9897 56.823 26.9696C56.7751 26.9495 56.7316 26.9201 56.695 26.883C56.6584 26.8459 56.6293 26.8019 56.6095 26.7534C56.5897 26.705 56.5795 26.653 56.5795 26.6006V9.96094C56.579 9.90815 56.5888 9.85578 56.6084 9.80686C56.628 9.75794 56.6569 9.71343 56.6936 9.67591C56.7303 9.63839 56.774 9.60861 56.8221 9.58829C56.8702 9.56796 56.9218 9.5575 56.974 9.5575C57.0261 9.5575 57.0777 9.56796 57.1259 9.58829C57.174 9.60861 57.2176 9.63839 57.2543 9.67591C57.291 9.71343 57.32 9.75794 57.3396 9.80686C57.3592 9.85578 57.369 9.90815 57.3684 9.96094V26.6006C57.3685 26.653 57.3583 26.705 57.3385 26.7535C57.3187 26.8019 57.2896 26.846 57.253 26.8831C57.2164 26.9202 57.1729 26.9496 57.125 26.9697C57.0771 26.9897 57.0258 27 56.974 27Z" fill="#4A47A3" fill-opacity="0.2"/>
<path d="M58.8597 27C58.8078 27 58.7565 26.9897 58.7087 26.9696C58.6608 26.9496 58.6173 26.9202 58.5806 26.8831C58.544 26.846 58.515 26.8019 58.4951 26.7534C58.4753 26.705 58.4652 26.653 58.4652 26.6006V17.7989C58.4663 17.6937 58.5083 17.5932 58.5821 17.5191C58.656 17.4451 58.7557 17.4036 58.8597 17.4036C58.9636 17.4036 59.0634 17.4451 59.1372 17.5191C59.2111 17.5932 59.2531 17.6937 59.2542 17.7989V26.6006C59.2542 26.653 59.244 26.705 59.2242 26.7534C59.2043 26.8019 59.1753 26.8459 59.1386 26.883C59.102 26.9201 59.0585 26.9495 59.0106 26.9696C58.9628 26.9897 58.9115 27 58.8597 27Z" fill="#4A47A3" fill-opacity="0.2"/>
<path d="M60.7458 27C60.694 27 60.6427 26.9897 60.5948 26.9697C60.547 26.9496 60.5035 26.9202 60.4668 26.8831C60.4302 26.846 60.4011 26.8019 60.3813 26.7535C60.3615 26.705 60.3513 26.6531 60.3513 26.6006V22.1998C60.3513 22.0939 60.3929 21.9923 60.4669 21.9174C60.5408 21.8425 60.6412 21.8004 60.7458 21.8004C60.8504 21.8004 60.9508 21.8425 61.0248 21.9174C61.0987 21.9923 61.1403 22.0939 61.1403 22.1998V26.6006C61.1403 26.6531 61.1301 26.705 61.1103 26.7535C61.0905 26.8019 61.0614 26.846 61.0248 26.8831C60.9881 26.9202 60.9447 26.9496 60.8968 26.9697C60.8489 26.9897 60.7976 27 60.7458 27Z" fill="#4A47A3" fill-opacity="0.2"/>
<path d="M62.6317 26.9999C62.5799 27 62.5286 26.9896 62.4807 26.9696C62.4328 26.9495 62.3893 26.9201 62.3527 26.883C62.3161 26.8459 62.287 26.8019 62.2672 26.7534C62.2474 26.7049 62.2372 26.653 62.2372 26.6005V24.2416C62.2382 24.1363 62.2803 24.0358 62.3541 23.9618C62.428 23.8877 62.5277 23.8462 62.6317 23.8462C62.7356 23.8462 62.8353 23.8877 62.9092 23.9618C62.9831 24.0358 63.0251 24.1363 63.0261 24.2416V26.6005C63.0262 26.653 63.016 26.7049 62.9962 26.7534C62.9764 26.8019 62.9473 26.8459 62.9107 26.883C62.8741 26.9201 62.8306 26.9496 62.7827 26.9696C62.7348 26.9897 62.6835 27 62.6317 26.9999Z" fill="#4A47A3" fill-opacity="0.2"/>
<path d="M64.5178 27C64.466 27.0001 64.4146 26.9898 64.3668 26.9697C64.3189 26.9496 64.2754 26.9202 64.2388 26.8831C64.2021 26.846 64.1731 26.802 64.1532 26.7535C64.1334 26.705 64.1233 26.6531 64.1233 26.6006V24.4878C64.1228 24.435 64.1326 24.3826 64.1522 24.3337C64.1718 24.2848 64.2008 24.2403 64.2374 24.2028C64.2741 24.1652 64.3178 24.1355 64.3659 24.1151C64.414 24.0948 64.4657 24.0844 64.5178 24.0844C64.5699 24.0844 64.6216 24.0948 64.6697 24.1151C64.7178 24.1355 64.7615 24.1652 64.7982 24.2028C64.8348 24.2403 64.8638 24.2848 64.8834 24.3337C64.903 24.3826 64.9128 24.435 64.9123 24.4878V26.6006C64.9123 26.6531 64.9021 26.705 64.8823 26.7535C64.8624 26.8019 64.8334 26.846 64.7967 26.8831C64.7601 26.9202 64.7166 26.9496 64.6688 26.9697C64.6209 26.9897 64.5696 27 64.5178 27Z" fill="#4A47A3" fill-opacity="0.2"/>
<path d="M66.4037 26.9999C66.3518 27 66.3005 26.9896 66.2527 26.9696C66.2048 26.9495 66.1613 26.9201 66.1247 26.883C66.088 26.8459 66.059 26.8019 66.0392 26.7534C66.0193 26.7049 66.0091 26.653 66.0092 26.6005V24.2416C66.0102 24.1363 66.0522 24.0358 66.1261 23.9618C66.2 23.8877 66.2997 23.8462 66.4036 23.8462C66.5076 23.8462 66.6073 23.8877 66.6812 23.9618C66.755 24.0358 66.7971 24.1363 66.7981 24.2416V26.6005C66.7981 26.653 66.788 26.7049 66.7682 26.7534C66.7484 26.8019 66.7193 26.8459 66.6827 26.883C66.646 26.9201 66.6025 26.9496 66.5547 26.9696C66.5068 26.9897 66.4555 27 66.4037 26.9999Z" fill="#4A47A3" fill-opacity="0.2"/>
<path d="M68.2895 27C68.2377 27 68.1864 26.9897 68.1386 26.9696C68.0907 26.9496 68.0472 26.9202 68.0106 26.8831C67.9739 26.846 67.9449 26.8019 67.925 26.7535C67.9052 26.705 67.895 26.6531 67.895 26.6006V22.9694C67.8945 22.9166 67.9043 22.8642 67.9239 22.8153C67.9435 22.7664 67.9725 22.7219 68.0092 22.6843C68.0458 22.6468 68.0895 22.617 68.1376 22.5967C68.1858 22.5764 68.2374 22.5659 68.2895 22.5659C68.3417 22.5659 68.3933 22.5764 68.4414 22.5967C68.4895 22.617 68.5332 22.6468 68.5699 22.6843C68.6066 22.7219 68.6355 22.7664 68.6551 22.8153C68.6747 22.8642 68.6845 22.9166 68.684 22.9694V26.6006C68.684 26.6531 68.6739 26.705 68.6541 26.7535C68.6343 26.802 68.6052 26.846 68.5686 26.8831C68.5319 26.9202 68.4884 26.9496 68.4405 26.9697C68.3927 26.9897 68.3414 27.0001 68.2895 27Z" fill="#4A47A3" fill-opacity="0.2"/>
<path d="M70.1756 27.0001C70.1238 27.0001 70.0725 26.9898 70.0246 26.9697C69.9768 26.9496 69.9333 26.9202 69.8967 26.8831C69.86 26.846 69.831 26.802 69.8111 26.7535C69.7913 26.705 69.7811 26.6531 69.7811 26.6006V20.1791C69.7811 20.0731 69.8227 19.9716 69.8967 19.8966C69.9707 19.8217 70.071 19.7797 70.1756 19.7797C70.2802 19.7797 70.3806 19.8217 70.4546 19.8966C70.5285 19.9716 70.5701 20.0731 70.5701 20.1791V26.6006C70.5701 26.6531 70.5599 26.705 70.5401 26.7535C70.5203 26.802 70.4912 26.846 70.4546 26.8831C70.418 26.9202 70.3745 26.9496 70.3266 26.9697C70.2787 26.9898 70.2274 27.0001 70.1756 27.0001Z" fill="#4A47A3" fill-opacity="0.2"/>
<path d="M72.0616 27.0001C72.0098 27.0001 71.9585 26.9898 71.9106 26.9697C71.8628 26.9496 71.8193 26.9202 71.7826 26.8831C71.746 26.846 71.7169 26.802 71.6971 26.7535C71.6773 26.705 71.6671 26.6531 71.6671 26.6006V15.2236C71.6666 15.1709 71.6764 15.1185 71.696 15.0696C71.7156 15.0206 71.7446 14.9761 71.7813 14.9386C71.8179 14.9011 71.8616 14.8713 71.9097 14.851C71.9578 14.8307 72.0095 14.8202 72.0616 14.8202C72.1137 14.8202 72.1654 14.8307 72.2135 14.851C72.2616 14.8713 72.3053 14.9011 72.342 14.9386C72.3786 14.9761 72.4076 15.0206 72.4272 15.0696C72.4468 15.1185 72.4566 15.1709 72.4561 15.2236V26.6006C72.4561 26.6531 72.446 26.7051 72.4261 26.7535C72.4063 26.802 72.3773 26.8461 72.3407 26.8832C72.304 26.9203 72.2605 26.9497 72.2126 26.9697C72.1648 26.9898 72.1134 27.0001 72.0616 27.0001Z" fill="#4A47A3" fill-opacity="0.2"/>
<path d="M73.9475 27C73.8956 27 73.8443 26.9897 73.7964 26.9696C73.7486 26.9496 73.7051 26.9202 73.6684 26.8831C73.6318 26.846 73.6027 26.8019 73.5829 26.7534C73.5631 26.705 73.553 26.653 73.553 26.6006V12.0537C73.5525 12.0009 73.5623 11.9486 73.5819 11.8996C73.6015 11.8507 73.6304 11.8062 73.6671 11.7687C73.7038 11.7312 73.7475 11.7014 73.7956 11.6811C73.8437 11.6607 73.8953 11.6503 73.9475 11.6503C73.9996 11.6503 74.0512 11.6607 74.0994 11.6811C74.1475 11.7014 74.1911 11.7312 74.2278 11.7687C74.2645 11.8062 74.2935 11.8507 74.3131 11.8996C74.3326 11.9486 74.3425 12.0009 74.3419 12.0537V26.6006C74.3419 26.653 74.3318 26.705 74.3119 26.7534C74.2921 26.8019 74.2631 26.8459 74.2264 26.883C74.1898 26.9201 74.1463 26.9495 74.0984 26.9696C74.0506 26.9897 73.9993 27 73.9475 27Z" fill="#4A47A3" fill-opacity="0.2"/>
<path d="M75.8336 27.0001C75.7818 27.0001 75.7305 26.9898 75.6826 26.9697C75.6348 26.9496 75.5913 26.9202 75.5546 26.8831C75.518 26.846 75.4889 26.802 75.4691 26.7535C75.4493 26.705 75.4391 26.6531 75.4391 26.6006V10.6996C75.4386 10.6468 75.4484 10.5944 75.468 10.5455C75.4876 10.4966 75.5165 10.4521 75.5532 10.4146C75.5899 10.377 75.6336 10.3473 75.6817 10.3269C75.7298 10.3066 75.7814 10.2961 75.8336 10.2961C75.8857 10.2961 75.9373 10.3066 75.9855 10.3269C76.0336 10.3473 76.0773 10.377 76.1139 10.4146C76.1506 10.4521 76.1796 10.4966 76.1992 10.5455C76.2188 10.5944 76.2286 10.6468 76.2281 10.6996V26.6006C76.2281 26.6531 76.2179 26.7051 76.1981 26.7535C76.1783 26.802 76.1493 26.8461 76.1126 26.8832C76.076 26.9203 76.0325 26.9497 75.9846 26.9697C75.9367 26.9898 75.8854 27.0001 75.8336 27.0001Z" fill="#4A47A3" fill-opacity="0.2"/>
<path d="M77.7195 27C77.6677 27 77.6164 26.9897 77.5685 26.9696C77.5206 26.9495 77.4771 26.9201 77.4405 26.883C77.4038 26.8459 77.3748 26.8019 77.355 26.7534C77.3352 26.705 77.325 26.653 77.325 26.6006V9.96094C77.3244 9.90815 77.3343 9.85578 77.3538 9.80686C77.3734 9.75794 77.4024 9.71343 77.4391 9.67591C77.4758 9.63839 77.5194 9.60861 77.5676 9.58829C77.6157 9.56796 77.6673 9.5575 77.7194 9.5575C77.7716 9.5575 77.8232 9.56796 77.8713 9.58829C77.9195 9.60861 77.9631 9.63839 77.9998 9.67591C78.0365 9.71343 78.0655 9.75794 78.085 9.80686C78.1046 9.85578 78.1144 9.90815 78.1139 9.96094V26.6006C78.114 26.653 78.1038 26.705 78.084 26.7535C78.0642 26.8019 78.0351 26.846 77.9985 26.8831C77.9619 26.9202 77.9183 26.9496 77.8705 26.9697C77.8226 26.9897 77.7713 27 77.7195 27Z" fill="#4A47A3" fill-opacity="0.2"/>
<path d="M79.6054 27C79.5536 27 79.5023 26.9897 79.4545 26.9697C79.4066 26.9496 79.3631 26.9202 79.3265 26.8831C79.2898 26.846 79.2608 26.8019 79.2409 26.7535C79.2211 26.705 79.2109 26.6531 79.2109 26.6006V9.79663C79.2109 9.6907 79.2525 9.58911 79.3265 9.5142C79.4005 9.4393 79.5008 9.39722 79.6054 9.39722C79.7101 9.39722 79.8104 9.4393 79.8844 9.5142C79.9584 9.58911 79.9999 9.6907 79.9999 9.79663V26.6006C79.9999 26.6531 79.9897 26.705 79.9699 26.7535C79.9501 26.8019 79.921 26.846 79.8844 26.8831C79.8478 26.9202 79.8043 26.9496 79.7564 26.9697C79.7085 26.9897 79.6572 27 79.6054 27Z" fill="#4A47A3" fill-opacity="0.2"/>
</svg>
