<svg width="18" height="18" viewBox="0 0 18 18" fill="none" xmlns="http://www.w3.org/2000/svg">
<g clip-path="url(#clip0_62_100)">
<path d="M14.625 11.25H3.375C2.75379 11.25 2.25 11.7538 2.25 12.375V16.875C2.25 17.4962 2.75379 18 3.375 18H14.625C15.2462 18 15.75 17.4962 15.75 16.875V12.375C15.75 11.7527 15.2473 11.25 14.625 11.25ZM14.625 16.875H3.375V12.375H14.625V16.875ZM15.75 6.75V2.48309C15.75 2.18461 15.6305 1.89844 15.4195 1.6875L14.0614 0.329414C13.8199 0.118477 13.5668 0 13.268 0H4.5C3.25723 0 2.25 1.00723 2.25 2.25V6.75C1.00898 6.75 0 7.75898 0 9V12.9375C0 13.2469 0.251578 13.5 0.5625 13.5C0.873422 13.5 1.125 13.2469 1.125 12.9375V9C1.125 8.37879 1.62879 7.875 2.25 7.875H15.75C16.3712 7.875 16.875 8.37879 16.875 9V12.9375C16.875 13.2484 17.1266 13.5 17.4375 13.5C17.7484 13.5 18 13.2484 18 12.9375V9C18 7.75898 16.991 6.75 15.75 6.75ZM14.625 6.75H3.375V2.25C3.375 1.62879 3.87879 1.125 4.5 1.125H13.268L14.625 2.48309V6.75ZM15.1875 8.71875C14.7217 8.71875 14.3438 9.09633 14.3438 9.5625C14.3438 10.0283 14.7217 10.4062 15.1875 10.4062C15.6533 10.4062 16.0312 10.0283 16.0312 9.5625C16.0312 9.09492 15.6551 8.71875 15.1875 8.71875Z" fill="#4A47A3"/>
</g>
<defs>
<clipPath id="clip0_62_100">
<rect width="18" height="18" fill="white"/>
</clipPath>
</defs>
</svg>
