<svg width="17" height="15" viewBox="0 0 17 15" fill="none" xmlns="http://www.w3.org/2000/svg">
<path d="M15.4062 2.1875H9.03125L6.90625 0.0625H1.59375C0.713867 0.0625 0 0.776367 0 1.65625V13.3438C0 14.2236 0.713867 14.9375 1.59375 14.9375H15.4062C16.2861 14.9375 17 14.2236 17 13.3438V3.78125C17 2.90137 16.2861 2.1875 15.4062 2.1875ZM11.6875 9.17012C11.6875 9.42246 11.485 9.625 11.2326 9.625L9.5625 9.59512V11.2649C9.5625 11.5475 9.35996 11.75 9.10762 11.75H7.89238C7.64004 11.75 7.4375 11.5475 7.4375 11.2951V9.59512L5.76738 9.625C5.51504 9.625 5.3125 9.42246 5.3125 9.17012V7.95488C5.3125 7.70254 5.51504 7.5 5.76738 7.5H7.4375V5.82988C7.4375 5.57754 7.64004 5.375 7.89238 5.375H9.10662C9.35996 5.375 9.5625 5.57754 9.5625 5.82988V7.5H11.2323C11.485 7.5 11.6875 7.70254 11.6875 7.95488V9.17012Z" fill="#333333"/>
</svg>
