<svg width="15" height="15" viewBox="0 0 16 16" fill="none" xmlns="http://www.w3.org/2000/svg">
<path d="M7.99648 0.128867C10.7904 0.128867 13.3332 1.59699 14.75 3.97496V0.6875C14.75 0.376719 15.0031 0.125 15.3125 0.125C15.6219 0.125 15.875 0.376719 15.875 0.6875V5.1875C15.875 5.49687 15.6219 5.75 15.3125 5.75H10.8125C10.5031 5.75 10.25 5.49687 10.25 5.1875C10.25 4.87813 10.5031 4.625 10.8125 4.625H13.8307C12.623 2.54023 10.4223 1.25 8 1.25C4.27695 1.25 1.25 4.27695 1.25 8C1.25 11.723 4.27801 14.75 8 14.75C10.0911 14.75 12.0324 13.8039 13.3191 12.1541C13.5103 11.908 13.8634 11.8629 14.1091 12.0574C14.3535 12.2486 14.3969 12.6023 14.2058 12.8463C12.7011 14.7711 10.4335 15.8715 7.99367 15.8715C3.65469 15.8715 0.125 12.3418 0.125 8C0.125 3.6582 3.65469 0.128867 7.99648 0.128867Z" fill="#EB5757"/>
</svg>
