<svg width="25" height="20" viewBox="0 0 25 20" fill="none" xmlns="http://www.w3.org/2000/svg">
<path d="M12.1354 5.89219C12.2569 5.8793 12.3785 5.875 12.5 5.875C14.8003 5.875 16.6667 7.68398 16.6667 10C16.6667 12.2773 14.8003 14.125 12.5 14.125C10.1606 14.125 8.33334 12.2773 8.33334 10C8.33334 9.87969 8.33768 9.75938 8.3507 9.63906C8.75434 9.83242 9.22309 10 9.72223 10C11.2543 10 12.5 8.7668 12.5 7.25C12.5 6.75586 12.3307 6.2918 12.1354 5.89219ZM20.8594 3.83828C22.8906 5.70312 24.2491 7.89883 24.8915 9.47148C25.0347 9.81094 25.0347 10.1891 24.8915 10.5285C24.2491 12.0625 22.8906 14.2582 20.8594 16.1617C18.8151 18.0437 16.0069 19.625 12.5 19.625C8.99306 19.625 6.1849 18.0437 4.1415 16.1617C2.11025 14.2582 0.752609 12.0625 0.10682 10.5285C-0.0356065 10.1891 -0.0356065 9.81094 0.10682 9.47148C0.752609 7.89883 2.11025 5.70312 4.1415 3.83828C6.1849 1.95797 8.99306 0.375 12.5 0.375C16.0069 0.375 18.8151 1.95797 20.8594 3.83828ZM12.5 3.8125C9.04948 3.8125 6.25 6.58398 6.25 10C6.25 13.416 9.04948 16.1875 12.5 16.1875C15.9505 16.1875 18.75 13.416 18.75 10C18.75 6.58398 15.9505 3.8125 12.5 3.8125Z" fill="#4A47A3"/>
</svg>
