<svg width="53" height="50" viewBox="0 0 53 50" fill="none" xmlns="http://www.w3.org/2000/svg">
<path d="M2.08331 5.30303C2.08331 2.37425 4.45756 0 7.38634 0H46.7803C49.7091 0 52.0833 2.37425 52.0833 5.30303V44.697C52.0833 47.6258 49.7091 50 46.7803 50H7.38634C4.45756 50 2.08331 47.6258 2.08331 44.697V5.30303Z" fill="#4A47A3"/>
<g clip-path="url(#clip0_1_11)">
<path d="M36.6793 17.9689C34.5003 17.9689 32.7336 19.7179 32.7336 21.8751C32.7336 23.4786 33.7106 24.8526 35.1064 25.4547V29.2974C35.1064 32.0928 32.628 34.3755 29.5824 34.3755C26.6231 34.3755 24.1916 32.2222 24.0634 29.5303C27.6091 28.7989 30.3661 25.6495 30.3661 21.8311V14.2868C30.3661 13.7311 29.9642 13.2428 29.4152 13.1393L26.3119 12.5235C25.6708 12.3953 25.0523 12.805 24.923 13.44L24.7632 14.2086C24.6338 14.8434 25.0499 15.4581 25.691 15.5866L27.2046 15.8824V21.8116C27.2046 24.3936 25.1267 26.5298 22.5127 26.5543C19.8799 26.5787 17.7379 24.4762 17.7379 21.8702L17.7345 15.8873L19.2496 15.5889C19.8908 15.4668 20.3056 14.8492 20.1759 14.2144L20.0235 13.4459C19.9002 12.8112 19.2762 12.4005 18.6351 12.529L15.5342 13.1344C14.9853 13.2443 14.5833 13.7252 14.5833 14.2868V21.8746C14.5833 25.6466 17.3014 28.8082 20.9014 29.5308C21.0296 33.9502 24.8717 37.5 29.577 37.5C34.3612 37.5 38.2576 33.8198 38.2576 29.2969V25.4542C39.6499 24.8507 40.625 23.4786 40.625 21.8775C40.625 19.7169 38.8593 17.9689 36.6793 17.9689ZM36.6793 23.047C36.0258 23.047 35.4956 22.5221 35.4956 21.8751C35.4956 21.2281 36.0233 20.7032 36.6793 20.7032C37.3352 20.7032 37.863 21.2257 37.863 21.8751C37.863 22.5245 37.3352 23.047 36.6793 23.047Z" fill="#FEFEFF"/>
</g>
<defs>
<clipPath id="clip0_1_11">
<rect width="39.5833" height="35.4167" fill="white" transform="translate(0 7.29169)"/>
</clipPath>
</defs>
</svg>
