<svg width="58" height="50" viewBox="0 0 58 50" fill="none" xmlns="http://www.w3.org/2000/svg">
<path d="M14.812 42.1737C14.4417 42.1747 14.0753 42.1 13.7371 41.9546C12.8445 41.5472 12.4574 40.822 12.4574 39.8715C12.4574 35.6045 12.4574 31.3365 12.4574 27.0675C12.4702 21.7781 12.4766 16.4804 12.4766 11.1744C12.4726 10.8374 12.5289 10.5023 12.643 10.1838C12.9629 9.32897 13.7947 8.85372 14.8312 8.85372H40.3281C40.6405 8.8452 40.9512 8.8992 41.2408 9.01231C41.5305 9.12541 41.7926 9.29518 42.0109 9.5109C42.2291 9.72662 42.3986 9.98361 42.5087 10.2657C42.6188 10.5477 42.6672 10.8488 42.6507 11.1497V29.7616H45.6323V24.3179C45.6323 19.8925 45.6323 15.4692 45.6323 11.0479C45.6414 10.3748 45.5103 9.70681 45.2469 9.08348C44.9835 8.46014 44.593 7.89415 44.0987 7.41903C43.6044 6.94391 43.0163 6.56933 42.3691 6.31748C41.722 6.06563 41.0291 5.94164 40.3313 5.95285H36.8347C29.4447 5.95285 22.0537 5.95285 14.6616 5.95285C13.5782 5.95771 12.5234 6.28899 11.6447 6.90038C10.766 7.51177 10.1073 8.37273 9.76058 9.36292C9.63261 9.73016 9.56543 10.1159 9.47266 10.4924V40.5011C9.48865 40.5689 9.49825 40.6368 9.52064 40.7047C9.6438 41.2434 9.81726 41.7701 10.0389 42.2786C11.053 44.1302 12.6814 45.056 14.8632 45.056C19.3249 45.056 23.7887 45.056 28.2547 45.056C28.3411 45.056 28.4242 45.056 28.5138 45.056V42.1922H28.0595C23.6426 42.186 19.2268 42.1799 14.812 42.1737Z" fill="#0CFFD1"/>
<path d="M49.641 32.7952C49.4709 32.666 49.2757 32.5708 49.0669 32.5152C48.8582 32.4595 48.64 32.4447 48.4252 32.4714C48.2104 32.4981 48.0033 32.5659 47.816 32.6708C47.6287 32.7757 47.465 32.9156 47.3344 33.0822C45.3446 35.3628 43.3323 37.6218 41.3297 39.8715C40.6323 40.6615 39.9381 41.4516 39.2215 42.2601L38.0282 41.3713L34.3108 38.5939C34.1474 38.4494 33.9545 38.3394 33.7446 38.2706C33.5347 38.2019 33.3122 38.176 33.0914 38.1946C32.8705 38.2131 32.6561 38.2758 32.4617 38.3786C32.2672 38.4814 32.0971 38.622 31.962 38.7916C31.827 38.9612 31.7299 39.156 31.677 39.3637C31.6241 39.5714 31.6166 39.7874 31.6549 39.9981C31.6931 40.2087 31.7764 40.4094 31.8993 40.5873C32.0222 40.7653 32.1822 40.9167 32.369 41.0319C34.361 42.5317 36.3593 44.0274 38.3641 45.519C39.1959 46.1362 40.0756 46.0436 40.7603 45.2659L47.4784 37.6835C48.2622 36.7916 49.0524 35.906 49.833 35.011C49.9776 34.8563 50.0879 34.6746 50.1569 34.4771C50.2259 34.2797 50.2522 34.0707 50.2343 33.863C50.2163 33.6554 50.1543 33.4535 50.0523 33.2698C49.9503 33.0862 49.8103 32.9247 49.641 32.7952V32.7952Z" fill="#0CFFD1"/>
<path d="M32.0868 32.536C33.5328 32.536 34.966 32.536 36.428 32.536C36.8522 32.5233 37.2538 32.3486 37.5445 32.0502C37.8352 31.7519 37.9911 31.3544 37.9779 30.9451C37.9648 30.5359 37.7836 30.1485 37.4744 29.8681C37.1651 29.5877 36.753 29.4373 36.3288 29.45H21.2641C20.2116 29.45 19.1623 29.45 18.1098 29.45C17.8998 29.4485 17.6915 29.487 17.4968 29.5633C17.3022 29.6395 17.1251 29.752 16.9755 29.8943C16.6734 30.1816 16.502 30.5729 16.4991 30.9822C16.4961 31.3914 16.6618 31.785 16.9596 32.0764C17.2575 32.3678 17.6632 32.5331 18.0874 32.536C21.1351 32.536 24.1839 32.536 27.2337 32.536H32.0868Z" fill="#0CFFD1"/>
<path d="M37.871 13.9892C37.7374 13.7145 37.5208 13.4852 37.2496 13.3315C36.9783 13.1778 36.6652 13.107 36.3514 13.1282C30.2731 13.1282 24.1948 13.1282 18.1165 13.1282C17.8982 13.1263 17.6813 13.1629 17.4766 13.2362C17.1344 13.3748 16.8527 13.6239 16.6799 13.9408C16.5071 14.2578 16.454 14.6228 16.5297 14.9734C16.6053 15.324 16.805 15.6383 17.0945 15.8624C17.384 16.0865 17.7453 16.2066 18.1165 16.2019H36.3514C36.5987 16.2154 36.8458 16.1724 37.0726 16.0764C37.2994 15.9804 37.4995 15.8341 37.6567 15.6495C37.8645 15.4273 37.9966 15.1489 38.0349 14.8519C38.0732 14.5549 38.016 14.2538 37.871 13.9892V13.9892Z" fill="#0CFFD1"/>
<path d="M37.9508 22.3303C37.8378 22.0127 37.6205 21.7393 37.3318 21.5516C37.0432 21.3639 36.6989 21.2722 36.3513 21.2903H18.1419C17.9404 21.2874 17.7397 21.3144 17.5468 21.3706C17.1902 21.4843 16.8864 21.7154 16.6887 22.0235C16.491 22.3316 16.412 22.6969 16.4655 23.0556C16.5217 23.4372 16.724 23.7847 17.0324 24.0297C17.3409 24.2747 17.7333 24.3995 18.1323 24.3795H33.6576C34.579 24.3795 35.5003 24.3795 36.4216 24.3795C36.6783 24.3823 36.9319 24.3255 37.161 24.2138C37.3901 24.1022 37.588 23.939 37.738 23.738C37.8879 23.5371 37.9855 23.3043 38.0226 23.0593C38.0596 22.8143 38.035 22.5642 37.9508 22.3303V22.3303Z" fill="#0CFFD1"/>
</svg>
