<svg width="26" height="27" viewBox="0 0 26 27" fill="none" xmlns="http://www.w3.org/2000/svg">
<g clip-path="url(#clip0_1846_5771)" filter="url(#filter0_d_1846_5771)">
<path d="M17.5415 18.9587C16.5998 18.9587 15.6082 18.7337 14.5832 18.3003C13.5832 17.8753 12.5748 17.292 11.5915 16.5837C10.6165 15.867 9.67484 15.067 8.78317 14.192C7.89984 13.3003 7.09984 12.3587 6.3915 11.392C5.67484 10.392 5.09984 9.39199 4.6915 8.42533C4.25817 7.39199 4.0415 6.39199 4.0415 5.45033C4.0415 4.80033 4.15817 4.18366 4.38317 3.60866C4.6165 3.01699 4.9915 2.46699 5.49984 1.99199C6.1415 1.35866 6.87484 1.04199 7.65817 1.04199C7.98317 1.04199 8.3165 1.11699 8.59984 1.25033C8.92484 1.40033 9.19984 1.62533 9.39984 1.92533L11.3332 4.65033C11.5082 4.89199 11.6415 5.12533 11.7332 5.35866C11.8415 5.60866 11.8998 5.85866 11.8998 6.10033C11.8998 6.41699 11.8082 6.72533 11.6332 7.01699C11.5082 7.24199 11.3165 7.48366 11.0748 7.72533L10.5082 8.31699C10.5165 8.34199 10.5248 8.35866 10.5332 8.37533C10.6332 8.55033 10.8332 8.85033 11.2165 9.30033C11.6248 9.76699 12.0082 10.192 12.3915 10.5837C12.8832 11.067 13.2915 11.4503 13.6748 11.767C14.1498 12.167 14.4582 12.367 14.6415 12.4587L14.6248 12.5003L15.2332 11.9003C15.4915 11.642 15.7415 11.4503 15.9832 11.3253C16.4415 11.042 17.0248 10.992 17.6082 11.2337C17.8248 11.3253 18.0582 11.4503 18.3082 11.6253L21.0748 13.592C21.3832 13.8003 21.6082 14.067 21.7415 14.3837C21.8665 14.7003 21.9248 14.992 21.9248 15.2837C21.9248 15.6837 21.8332 16.0837 21.6582 16.4587C21.4832 16.8337 21.2665 17.1587 20.9915 17.4587C20.5165 17.9837 19.9998 18.3587 19.3998 18.6003C18.8248 18.8337 18.1998 18.9587 17.5415 18.9587ZM7.65817 2.29199C7.19984 2.29199 6.77484 2.49199 6.3665 2.89199C5.98317 3.25033 5.7165 3.64199 5.54984 4.06699C5.37484 4.50033 5.2915 4.95866 5.2915 5.45033C5.2915 6.22533 5.47484 7.06699 5.8415 7.93366C6.2165 8.81699 6.7415 9.73366 7.40817 10.6503C8.07484 11.567 8.83317 12.4587 9.6665 13.3003C10.4998 14.1253 11.3998 14.892 12.3248 15.567C13.2248 16.2253 14.1498 16.7587 15.0665 17.142C16.4915 17.7503 17.8248 17.892 18.9248 17.4337C19.3498 17.2587 19.7248 16.992 20.0665 16.6087C20.2582 16.4003 20.4082 16.1753 20.5332 15.9087C20.6332 15.7003 20.6832 15.4837 20.6832 15.267C20.6832 15.1337 20.6582 15.0003 20.5915 14.8503C20.5665 14.8003 20.5165 14.7087 20.3582 14.6003L17.5915 12.6337C17.4248 12.517 17.2748 12.4337 17.1332 12.3753C16.9498 12.3003 16.8748 12.2253 16.5915 12.4003C16.4248 12.4837 16.2748 12.6087 16.1082 12.7753L15.4748 13.4003C15.1498 13.717 14.6498 13.792 14.2665 13.6503L14.0415 13.5503C13.6998 13.367 13.2998 13.0837 12.8582 12.7087C12.4582 12.367 12.0248 11.967 11.4998 11.4503C11.0915 11.0337 10.6832 10.592 10.2582 10.1003C9.8665 9.64199 9.58317 9.25033 9.40817 8.92533L9.30817 8.67533C9.25817 8.48366 9.2415 8.37533 9.2415 8.25866C9.2415 7.95866 9.34984 7.69199 9.55817 7.48366L10.1832 6.83366C10.3498 6.66699 10.4748 6.50866 10.5582 6.36699C10.6248 6.25866 10.6498 6.16699 10.6498 6.08366C10.6498 6.01699 10.6248 5.91699 10.5832 5.81699C10.5248 5.68366 10.4332 5.53366 10.3165 5.37533L8.38317 2.64199C8.29984 2.52533 8.19984 2.44199 8.07484 2.38366C7.9415 2.32533 7.79984 2.29199 7.65817 2.29199ZM14.6248 12.5087L14.4915 13.0753L14.7165 12.492C14.6748 12.4837 14.6415 12.492 14.6248 12.5087Z" fill="#008DD0"/>
<path d="M18.4167 8.12467C18.075 8.12467 17.7917 7.84134 17.7917 7.49967C17.7917 7.19967 17.4917 6.57467 16.9917 6.04134C16.5 5.51634 15.9583 5.20801 15.5 5.20801C15.1583 5.20801 14.875 4.92467 14.875 4.58301C14.875 4.24134 15.1583 3.95801 15.5 3.95801C16.3083 3.95801 17.1583 4.39134 17.9 5.18301C18.5917 5.92467 19.0417 6.83301 19.0417 7.49967C19.0417 7.84134 18.7583 8.12467 18.4167 8.12467Z" fill="#008DD0"/>
<path d="M21.3333 8.12533C20.9917 8.12533 20.7083 7.84199 20.7083 7.50033C20.7083 4.62533 18.375 2.29199 15.5 2.29199C15.1583 2.29199 14.875 2.00866 14.875 1.66699C14.875 1.32533 15.1583 1.04199 15.5 1.04199C19.0583 1.04199 21.9583 3.94199 21.9583 7.50033C21.9583 7.84199 21.675 8.12533 21.3333 8.12533Z" fill="#008DD0"/>
</g>
<defs>
<filter id="filter0_d_1846_5771" x="-1" y="0" width="28" height="28" filterUnits="userSpaceOnUse" color-interpolation-filters="sRGB">
<feFlood flood-opacity="0" result="BackgroundImageFix"/>
<feColorMatrix in="SourceAlpha" type="matrix" values="0 0 0 0 0 0 0 0 0 0 0 0 0 0 0 0 0 0 127 0" result="hardAlpha"/>
<feOffset dy="4"/>
<feGaussianBlur stdDeviation="2"/>
<feComposite in2="hardAlpha" operator="out"/>
<feColorMatrix type="matrix" values="0 0 0 0 0 0 0 0 0 0 0 0 0 0 0 0 0 0 0.25 0"/>
<feBlend mode="normal" in2="BackgroundImageFix" result="effect1_dropShadow_1846_5771"/>
<feBlend mode="normal" in="SourceGraphic" in2="effect1_dropShadow_1846_5771" result="shape"/>
</filter>
<clipPath id="clip0_1846_5771">
<rect width="20" height="20" fill="white" transform="translate(3)"/>
</clipPath>
</defs>
</svg>
