<svg width="150" height="120" viewBox="0 0 150 120" fill="none" xmlns="http://www.w3.org/2000/svg">
<g clip-path="url(#clip0_1_1294)">
<path d="M26.25 0C20.0391 0 15 5.03906 15 11.25V22.5H3.75C1.6875 22.5 0 24.1875 0 26.25C0 28.3125 1.6875 30 3.75 30H63.75C65.8125 30 67.5 31.6875 67.5 33.75C67.5 35.8125 65.8125 37.5 63.75 37.5H11.25C9.1875 37.5 7.5 39.1875 7.5 41.25C7.5 43.3125 9.1875 45 11.25 45H56.25C58.3125 45 60 46.6875 60 48.75C60 50.8125 58.3125 52.5 56.25 52.5H3.75C1.6875 52.5 0 54.1875 0 56.25C0 58.3125 1.6875 60 3.75 60H48.75C50.8125 60 52.5 61.6875 52.5 63.75C52.5 65.8125 50.8125 67.5 48.75 67.5H15V97.5C15 109.922 25.0781 120 37.5 120C49.9219 120 60 109.922 60 97.5H90C90 109.922 100.078 120 112.5 120C124.922 120 135 109.922 135 97.5H142.5C146.648 97.5 150 94.1484 150 90C150 85.8516 146.648 82.5 142.5 82.5V55.6172C142.5 51.6328 140.93 47.8125 138.117 45L120 26.8828C117.188 24.0703 113.367 22.5 109.383 22.5H97.5V11.25C97.5 5.03906 92.4609 0 86.25 0H26.25ZM127.5 55.6172V60H97.5V37.5H109.383L127.5 55.6172ZM37.5 108.75C31.2891 108.75 26.25 103.711 26.25 97.5C26.25 91.2891 31.2891 86.25 37.5 86.25C43.7109 86.25 48.75 91.2891 48.75 97.5C48.75 103.711 43.7109 108.75 37.5 108.75ZM123.75 97.5C123.75 103.711 118.711 108.75 112.5 108.75C106.289 108.75 101.25 103.711 101.25 97.5C101.25 91.2891 106.289 86.25 112.5 86.25C118.711 86.25 123.75 91.2891 123.75 97.5Z" fill="#8DB0B6"/>
</g>
<defs>
<clipPath id="clip0_1_1294">
<rect width="150" height="120" fill="white"/>
</clipPath>
</defs>
</svg>
