<?xml version="1.0" standalone="no"?>
<!DOCTYPE svg PUBLIC "-//W3C//DTD SVG 20010904//EN"
 "http://www.w3.org/TR/2001/REC-SVG-20010904/DTD/svg10.dtd">
<svg version="1.0" xmlns="http://www.w3.org/2000/svg"
 width="512.000000pt" height="512.000000pt" viewBox="0 0 512.000000 512.000000"
 preserveAspectRatio="xMidYMid meet">

<g transform="translate(0.000000,512.000000) scale(0.100000,-0.100000)"
fill="currentColor" stroke="none">
<path d="M60 2560 l0 -2560 1950 0 1950 0 0 815 c0 448 -3 815 -8 815 -4 0
-248 -241 -542 -535 l-535 -535 -367 0 -368 0 0 373 0 372 275 275 275 275
-1017 5 -1018 5 -3 148 -3 147 1173 0 1173 0 483 483 482 482 -2 495 -3 495
-592 3 -593 2 0 500 0 500 -675 0 -675 0 0 -295 0 -295 201 0 c199 0 201 0
196 -21 -3 -11 -68 -181 -144 -377 l-138 -356 -3 222 -2 222 -200 0 -200 0 0
450 0 450 -535 0 -535 0 0 -2560z m3030 100 l0 -150 -1217 2 -1218 3 -3 148
-3 147 1221 0 1220 0 0 -150z m-1420 -1320 l0 -150 -510 0 -510 0 0 143 c0 79
3 147 7 150 3 4 233 7 510 7 l503 0 0 -150z"/>
<path d="M3070 4765 l0 -345 422 0 c413 0 422 0 403 19 -11 10 -201 165 -422
345 l-403 326 0 -345z"/>
<path d="M4740 3375 l-115 -115 105 -105 105 -105 115 115 115 115 -105 105
-105 105 -115 -115z"/>
<path d="M3587 2332 l-777 -777 160 -160 160 -160 778 778 777 777 -160 160
-160 160 -778 -778z"/>
<path d="M4532 2217 l-142 -142 0 -195 0 -195 -102 -102 -103 -103 105 -105
105 -105 147 147 148 148 0 397 c0 219 -3 398 -8 398 -4 0 -71 -64 -150 -143z"/>
<path d="M2517 1262 l-77 -77 0 -163 0 -162 158 0 157 0 80 80 80 80 -160 160
-160 160 -78 -78z"/>
</g>
</svg>
