<svg width="14" height="14" viewBox="0 0 14 14" fill="none" xmlns="http://www.w3.org/2000/svg">
<path d="M12.2503 2.33332H10.442C10.1629 0.976254 8.96912 0.00175 7.58364 0H6.41696C5.03148 0.00175 3.83771 0.976254 3.55864 2.33332H1.75032C1.42815 2.33332 1.16699 2.59448 1.16699 2.91665C1.16699 3.23881 1.42815 3.5 1.75032 3.5H2.33364V11.0833C2.33558 12.6934 3.64029 13.9981 5.25032 14H8.75032C10.3603 13.9981 11.6651 12.6934 11.667 11.0833V3.5H12.2503C12.5725 3.5 12.8336 3.23884 12.8336 2.91668C12.8336 2.59451 12.5725 2.33332 12.2503 2.33332ZM6.41699 9.91668C6.41699 10.2388 6.15583 10.5 5.83367 10.5C5.51148 10.5 5.25032 10.2388 5.25032 9.91668V6.41668C5.25032 6.09451 5.51148 5.83335 5.83364 5.83335C6.1558 5.83335 6.41696 6.09451 6.41696 6.41668V9.91668H6.41699ZM8.75032 9.91668C8.75032 10.2388 8.48916 10.5 8.16699 10.5C7.84483 10.5 7.58367 10.2388 7.58367 9.91668V6.41668C7.58367 6.09451 7.84483 5.83335 8.16699 5.83335C8.48916 5.83335 8.75032 6.09451 8.75032 6.41668V9.91668ZM4.76674 2.33332C5.01486 1.63466 5.67559 1.16755 6.41699 1.16665H7.58367C8.32507 1.16755 8.9858 1.63466 9.23392 2.33332H4.76674Z" fill="#EB5757"/>
</svg>
