<svg width="16" height="14" viewBox="0 0 16 14" fill="none" xmlns="http://www.w3.org/2000/svg">
<g clip-path="url(#clip0_227_371)">
<path d="M15.3588 4.92386C13.7398 2.42601 10.9758 0.906832 7.99931 0.878906C5.02283 0.906832 2.25883 2.42601 0.639877 4.92386C-0.213292 6.17594 -0.213292 7.82259 0.639877 9.0747C2.25791 11.5741 5.02208 13.0948 7.99934 13.1237C10.9758 13.0957 13.7398 11.5766 15.3588 9.07872C16.2138 7.8257 16.2138 6.17685 15.3588 4.92386ZM13.7022 7.93948C12.4662 9.89998 10.3169 11.0961 7.99931 11.1133C5.68177 11.0961 3.53249 9.89998 2.29643 7.93948C1.91109 7.37336 1.91109 6.62919 2.29643 6.0631C3.53245 4.1026 5.68174 2.9065 7.99931 2.88932C10.3168 2.90647 12.4661 4.1026 13.7022 6.0631C14.0875 6.62919 14.0875 7.37336 13.7022 7.93948Z" fill="#008dd0" />
<path d="M7.9989 9.68139C9.47932 9.68139 10.6794 8.48127 10.6794 7.00085C10.6794 5.52043 9.47932 4.32031 7.9989 4.32031C6.51848 4.32031 5.31836 5.52043 5.31836 7.00085C5.31836 8.48127 6.51848 9.68139 7.9989 9.68139Z" fill="#008dd0"/>
</g>
<defs>
<clipPath id="clip0_227_371">
<rect width="16" height="14" fill="white"/>
</clipPath>
</defs>
</svg>
