<svg width="16" height="16" viewBox="0 0 16 16" fill="none" xmlns="http://www.w3.org/2000/svg">
<g clip-path="url(#clip0_1846_5800)">
<path d="M5.07143 5.10714C5.88095 4.29762 6.85714 3.89286 8 3.89286C9.14286 3.89286 10.1071 4.29762 10.8929 5.10714C11.7024 5.89286 12.1071 6.85714 12.1071 8C12.1071 9.14286 11.7024 10.119 10.8929 10.9286C10.1071 11.7143 9.14286 12.1071 8 12.1071C6.85714 12.1071 5.88095 11.7143 5.07143 10.9286C4.28571 10.119 3.89286 9.14286 3.89286 8C3.89286 6.85714 4.28571 5.89286 5.07143 5.10714ZM6.10714 9.89286C6.63095 10.4167 7.26191 10.6786 8 10.6786C8.7381 10.6786 9.36905 10.4167 9.89286 9.89286C10.4167 9.36905 10.6786 8.7381 10.6786 8C10.6786 7.26191 10.4167 6.63095 9.89286 6.10714C9.36905 5.58333 8.7381 5.32143 8 5.32143C7.26191 5.32143 6.63095 5.58333 6.10714 6.10714C5.58333 6.63095 5.32143 7.26191 5.32143 8C5.32143 8.7381 5.58333 9.36905 6.10714 9.89286ZM12.9286 3.07143C13.119 3.2381 13.2143 3.45238 13.2143 3.71429C13.2143 3.97619 13.119 4.20238 12.9286 4.39286C12.7619 4.58333 12.5476 4.67857 12.2857 4.67857C12.0238 4.67857 11.7976 4.58333 11.6071 4.39286C11.4167 4.20238 11.3214 3.97619 11.3214 3.71429C11.3214 3.45238 11.4167 3.2381 11.6071 3.07143C11.7976 2.88095 12.0238 2.78571 12.2857 2.78571C12.5476 2.78571 12.7619 2.88095 12.9286 3.07143ZM15.9643 4.71429C15.9881 5.35714 16 6.45238 16 8C16 9.54762 15.9881 10.6429 15.9643 11.2857C15.8929 12.7381 15.4524 13.869 14.6429 14.6786C13.8571 15.4643 12.7381 15.881 11.2857 15.9286C10.6429 15.9762 9.54762 16 8 16C6.45238 16 5.35714 15.9762 4.71429 15.9286C3.2619 15.8571 2.14286 15.4286 1.35714 14.6429C1.04762 14.3571 0.797619 14.0238 0.607143 13.6429C0.416667 13.2619 0.27381 12.8929 0.178571 12.5357C0.107143 12.1786 0.0714286 11.7619 0.0714286 11.2857C0.0238095 10.6429 0 9.54762 0 8C0 6.45238 0.0238095 5.34524 0.0714286 4.67857C0.142857 3.25 0.571429 2.14286 1.35714 1.35714C2.14286 0.547619 3.2619 0.107143 4.71429 0.0357143C5.35714 0.0119048 6.45238 0 8 0C9.54762 0 10.6429 0.0119048 11.2857 0.0357143C12.7381 0.107143 13.8571 0.547619 14.6429 1.35714C15.4524 2.14286 15.8929 3.2619 15.9643 4.71429ZM14.25 12.7143C14.3214 12.5238 14.381 12.2857 14.4286 12C14.4762 11.6905 14.5119 11.3333 14.5357 10.9286C14.5595 10.5 14.5714 10.1548 14.5714 9.89286C14.5714 9.63095 14.5714 9.26191 14.5714 8.78572C14.5714 8.30952 14.5714 8.04762 14.5714 8C14.5714 7.92857 14.5714 7.66667 14.5714 7.21429C14.5714 6.7381 14.5714 6.36905 14.5714 6.10714C14.5714 5.84524 14.5595 5.51191 14.5357 5.10714C14.5119 4.67857 14.4762 4.32143 14.4286 4.03571C14.381 3.72619 14.3214 3.47619 14.25 3.28571C13.9643 2.54762 13.4524 2.03571 12.7143 1.75C12.5238 1.67857 12.2738 1.61905 11.9643 1.57143C11.6786 1.52381 11.3214 1.4881 10.8929 1.46429C10.4881 1.44048 10.1548 1.42857 9.89286 1.42857C9.65476 1.42857 9.28572 1.42857 8.78572 1.42857C8.30952 1.42857 8.04762 1.42857 8 1.42857C7.95238 1.42857 7.69048 1.42857 7.21429 1.42857C6.7381 1.42857 6.36905 1.42857 6.10714 1.42857C5.84524 1.42857 5.5 1.44048 5.07143 1.46429C4.66667 1.4881 4.30952 1.52381 4 1.57143C3.71429 1.61905 3.47619 1.67857 3.28571 1.75C2.54762 2.03571 2.03571 2.54762 1.75 3.28571C1.67857 3.47619 1.61905 3.72619 1.57143 4.03571C1.52381 4.32143 1.4881 4.67857 1.46429 5.10714C1.44048 5.51191 1.42857 5.84524 1.42857 6.10714C1.42857 6.34524 1.42857 6.71429 1.42857 7.21429C1.42857 7.69048 1.42857 7.95238 1.42857 8C1.42857 8.09524 1.42857 8.32143 1.42857 8.67857C1.42857 9.01191 1.42857 9.29762 1.42857 9.53572C1.42857 9.75 1.42857 10.0357 1.42857 10.3929C1.45238 10.75 1.47619 11.0595 1.5 11.3214C1.52381 11.5595 1.55952 11.8095 1.60714 12.0714C1.65476 12.3333 1.70238 12.5476 1.75 12.7143C2.05952 13.4524 2.57143 13.9643 3.28571 14.25C3.47619 14.3214 3.71429 14.381 4 14.4286C4.30952 14.4762 4.66667 14.5119 5.07143 14.5357C5.5 14.5595 5.83333 14.5714 6.07143 14.5714C6.33333 14.5714 6.70238 14.5714 7.17857 14.5714C7.67857 14.5714 7.95238 14.5714 8 14.5714C8.07143 14.5714 8.33333 14.5714 8.78572 14.5714C9.26191 14.5714 9.63095 14.5714 9.89286 14.5714C10.1548 14.5714 10.4881 14.5595 10.8929 14.5357C11.3214 14.5119 11.6786 14.4762 11.9643 14.4286C12.2738 14.381 12.5238 14.3214 12.7143 14.25C13.4524 13.9405 13.9643 13.4286 14.25 12.7143Z" fill="#008DD0"/>
</g>
<defs>
<clipPath id="clip0_1846_5800">
<rect width="16" height="16" fill="white"/>
</clipPath>
</defs>
</svg>
