<svg width="51" height="56" viewBox="0 0 51 56" fill="none" xmlns="http://www.w3.org/2000/svg">
<g clip-path="url(#clip0_1295_8140)">
<path d="M48.5717 8.47259C42.4979 7.24404 36.8194 4.9054 31.4878 1.80331C27.3815 -0.583592 23.4904 -0.614305 19.3841 1.79453C13.8681 5.03264 7.93924 7.32301 1.67222 8.66564C0.714824 8.87187 0.420577 9.26237 0.442536 10.2013C0.587463 16.9847 1.42189 23.6584 3.70121 30.0819C7.51324 40.8317 13.9647 49.4974 23.833 55.4734C25.0275 56.1974 25.9454 56.1755 27.1092 55.412C31.5097 52.5249 35.3613 49.0499 38.6419 44.9386C46.0859 35.606 49.7091 24.8781 50.3723 13.0358C50.3723 12.325 50.28 11.5966 50.3898 10.899C50.6358 9.40716 50.0473 8.77095 48.5717 8.47259ZM36.266 44.3375C33.5431 47.501 30.0648 50.0108 26.9204 52.8101C25.9278 53.6964 24.9968 53.6438 23.8374 52.8891C14.5532 46.8429 8.65071 38.3088 5.40521 27.8618C4.50051 24.9483 3.91201 21.9121 3.42892 18.8933C3.01171 16.2519 2.95022 13.5535 2.71307 10.662C9.84087 9.18778 16.0947 6.16467 22.2827 2.96166C24.3819 1.87351 26.4768 1.89545 28.5892 2.97482C30.7851 4.09807 32.9414 5.33539 35.2295 6.23487C39.0416 7.73546 42.937 9.0386 46.8237 10.3461C47.5923 10.605 48.071 10.7981 48.0359 11.7414C47.5967 23.8734 44.2809 35.0181 36.266 44.3375Z" fill="#0CFFD1"/>
<path d="M24.3291 31.6789C21.9268 29.5289 19.6958 27.5325 17.4121 25.4879C16.8763 26.0714 16.4416 26.5497 15.9146 27.1245C18.8395 29.7878 21.7073 32.3985 24.7551 35.1715C28.5891 29.213 32.3001 23.4476 36.0463 17.6295C35.2953 17.1732 34.7551 16.8441 34.1403 16.4712C30.8245 21.6048 27.6098 26.5936 24.3291 31.6789Z" fill="#0CFFD1"/>
</g>
<defs>
<clipPath id="clip0_1295_8140">
<rect width="50" height="56" fill="white" transform="translate(0.442383)"/>
</clipPath>
</defs>
</svg>
