<svg width="97" height="16" viewBox="0 0 97 16" fill="none" xmlns="http://www.w3.org/2000/svg">
<g clip-path="url(#clip0_1068_3462)">
<path d="M16.0311 5.12934L11.6618 4.49233L9.7089 0.532715C9.359 -0.173079 8.34517 -0.18205 7.99227 0.532715L6.03938 4.49233L1.67004 5.12934C0.886488 5.24299 0.57247 6.20897 1.14069 6.76224L4.30181 9.8426L3.55415 14.194C3.41957 14.9805 4.24798 15.5697 4.94181 15.2018L8.85059 13.1473L12.7594 15.2018C13.4532 15.5667 14.2816 14.9805 14.147 14.194L13.3994 9.8426L16.5605 6.76224C17.1287 6.20897 16.8147 5.24299 16.0311 5.12934Z" fill="#FFC83E"/>
</g>
<g clip-path="url(#clip1_1068_3462)">
<path d="M36.0311 5.12934L31.6618 4.49233L29.7089 0.532715C29.359 -0.173079 28.3452 -0.18205 27.9923 0.532715L26.0394 4.49233L21.67 5.12934C20.8865 5.24299 20.5725 6.20897 21.1407 6.76224L24.3018 9.8426L23.5541 14.194C23.4196 14.9805 24.248 15.5697 24.9418 15.2018L28.8506 13.1473L32.7594 15.2018C33.4532 15.5667 34.2816 14.9805 34.147 14.194L33.3994 9.8426L36.5605 6.76224C37.1287 6.20897 36.8147 5.24299 36.0311 5.12934Z" fill="#FFC83E"/>
</g>
<g clip-path="url(#clip2_1068_3462)">
<path d="M56.0311 5.12934L51.6618 4.49233L49.7089 0.532715C49.359 -0.173079 48.3452 -0.18205 47.9923 0.532715L46.0394 4.49233L41.67 5.12934C40.8865 5.24299 40.5725 6.20897 41.1407 6.76224L44.3018 9.8426L43.5541 14.194C43.4196 14.9805 44.248 15.5697 44.9418 15.2018L48.8506 13.1473L52.7594 15.2018C53.4532 15.5667 54.2816 14.9805 54.147 14.194L53.3994 9.8426L56.5605 6.76224C57.1287 6.20897 56.8147 5.24299 56.0311 5.12934Z" fill="#FFC83E"/>
</g>
<g clip-path="url(#clip3_1068_3462)">
<path d="M76.0311 5.12934L71.6618 4.49233L69.7089 0.532715C69.359 -0.173079 68.3452 -0.18205 67.9923 0.532715L66.0394 4.49233L61.67 5.12934C60.8865 5.24299 60.5725 6.20897 61.1407 6.76224L64.3018 9.8426L63.5541 14.194C63.4196 14.9805 64.248 15.5697 64.9418 15.2018L68.8506 13.1473L72.7594 15.2018C73.4532 15.5667 74.2816 14.9805 74.147 14.194L73.3994 9.8426L76.5605 6.76224C77.1287 6.20897 76.8147 5.24299 76.0311 5.12934Z" fill="#FFC83E"/>
</g>
<g clip-path="url(#clip4_1068_3462)">
<path d="M96.0311 5.12934L91.6618 4.49233L89.7089 0.532715C89.359 -0.173079 88.3452 -0.18205 87.9923 0.532715L86.0394 4.49233L81.67 5.12934C80.8865 5.24299 80.5725 6.20897 81.1407 6.76224L84.3018 9.8426L83.5541 14.194C83.4196 14.9805 84.248 15.5697 84.9418 15.2018L88.8506 13.1473L92.7594 15.2018C93.4532 15.5667 94.2816 14.9805 94.147 14.194L93.3994 9.8426L96.5605 6.76224C97.1287 6.20897 96.8147 5.24299 96.0311 5.12934Z" fill="#FFC83E"/>
</g>
<defs>
<clipPath id="clip0_1068_3462">
<rect width="16" height="16" fill="white" transform="translate(0.850586)"/>
</clipPath>
<clipPath id="clip1_1068_3462">
<rect width="16" height="16" fill="white" transform="translate(20.8506)"/>
</clipPath>
<clipPath id="clip2_1068_3462">
<rect width="16" height="16" fill="white" transform="translate(40.8506)"/>
</clipPath>
<clipPath id="clip3_1068_3462">
<rect width="16" height="16" fill="white" transform="translate(60.8506)"/>
</clipPath>
<clipPath id="clip4_1068_3462">
<rect width="16" height="16" fill="white" transform="translate(80.8506)"/>
</clipPath>
</defs>
</svg>
