<svg width="100" height="110" viewBox="0 0 100 110" fill="none" xmlns="http://www.w3.org/2000/svg">
<path opacity="0.15" d="M41.7394 2.15663C46.7199 -0.718875 52.8561 -0.718876 57.8367 2.15663L91.5274 21.608C96.5079 24.4835 99.576 29.7976 99.576 35.5486V74.4514C99.576 80.2024 96.5079 85.5165 91.5274 88.392L57.8367 107.843C52.8561 110.719 46.7199 110.719 41.7394 107.843L8.04864 88.392C3.06812 85.5165 0 80.2024 0 74.4514V35.5486C0 29.7976 3.06812 24.4835 8.04864 21.608L41.7394 2.15663Z" fill="#FD4C5C"/>
<path fill-rule="evenodd" clip-rule="evenodd" d="M36.7163 72.6159C36.7163 72.035 36.9496 71.478 37.3648 71.0672C37.78 70.6565 38.3432 70.4258 38.9305 70.4258H78.7858C79.3731 70.4258 79.9362 70.6565 80.3515 71.0672C80.7667 71.478 81 72.035 81 72.6159C81 73.1967 80.7667 73.7538 80.3515 74.1645C79.9362 74.5752 79.3731 74.806 78.7858 74.806H38.9305C38.3432 74.806 37.78 74.5752 37.3648 74.1645C36.9496 73.7538 36.7163 73.1967 36.7163 72.6159ZM36.7163 55.0951C36.7163 54.5142 36.9496 53.9571 37.3648 53.5464C37.78 53.1357 38.3432 52.9049 38.9305 52.9049H78.7858C79.3731 52.9049 79.9362 53.1357 80.3515 53.5464C80.7667 53.9571 81 54.5142 81 55.0951C81 55.6759 80.7667 56.233 80.3515 56.6437C79.9362 57.0544 79.3731 57.2852 78.7858 57.2852H38.9305C38.3432 57.2852 37.78 57.0544 37.3648 56.6437C36.9496 56.233 36.7163 55.6759 36.7163 55.0951ZM36.7163 37.5742C36.7163 36.9934 36.9496 36.4363 37.3648 36.0256C37.78 35.6149 38.3432 35.3841 38.9305 35.3841H78.7858C79.3731 35.3841 79.9362 35.6149 80.3515 36.0256C80.7667 36.4363 81 36.9934 81 37.5742C81 38.1551 80.7667 38.7121 80.3515 39.1229C79.9362 39.5336 79.3731 39.7643 78.7858 39.7643H38.9305C38.3432 39.7643 37.78 39.5336 37.3648 39.1229C36.9496 38.7121 36.7163 38.1551 36.7163 37.5742ZM31.6414 31.6434C31.8476 31.8469 32.0112 32.0885 32.1228 32.3546C32.2344 32.6207 32.2919 32.9059 32.2919 33.194C32.2919 33.4821 32.2344 33.7673 32.1228 34.0334C32.0112 34.2995 31.8476 34.5412 31.6414 34.7446L24.9988 41.3149C24.7931 41.5189 24.5488 41.6807 24.2798 41.7911C24.0108 41.9015 23.7224 41.9583 23.4312 41.9583C23.1399 41.9583 22.8515 41.9015 22.5825 41.7911C22.3135 41.6807 22.0692 41.5189 21.8635 41.3149L19.6493 39.1248C19.4435 38.9212 19.2802 38.6795 19.1688 38.4134C19.0573 38.1473 19 37.8622 19 37.5742C19 37.2863 19.0573 37.0011 19.1688 36.7351C19.2802 36.469 19.4435 36.2273 19.6493 36.0236C19.8552 35.82 20.0996 35.6585 20.3686 35.5483C20.6376 35.4381 20.9258 35.3814 21.217 35.3814C21.5081 35.3814 21.7964 35.4381 22.0654 35.5483C22.3344 35.6585 22.5788 35.82 22.7846 36.0236L23.4312 36.6675L28.5061 31.6434C28.7118 31.4395 28.9561 31.2777 29.2251 31.1672C29.4941 31.0568 29.7825 31 30.0737 31C30.365 31 30.6533 31.0568 30.9224 31.1672C31.1914 31.2777 31.4357 31.4395 31.6414 31.6434ZM31.6414 49.1643C31.8476 49.3677 32.0112 49.6094 32.1228 49.8755C32.2344 50.1415 32.2919 50.4268 32.2919 50.7148C32.2919 51.0029 32.2344 51.2882 32.1228 51.5542C32.0112 51.8203 31.8476 52.062 31.6414 52.2654L24.9988 58.8358C24.7931 59.0397 24.5488 59.2015 24.2798 59.3119C24.0108 59.4223 23.7224 59.4792 23.4312 59.4792C23.1399 59.4792 22.8515 59.4223 22.5825 59.3119C22.3135 59.2015 22.0692 59.0397 21.8635 58.8358L19.6493 56.6456C19.2336 56.2344 19 55.6766 19 55.0951C19 54.5135 19.2336 53.9557 19.6493 53.5445C20.0651 53.1332 20.629 52.9022 21.217 52.9022C21.805 52.9022 22.3689 53.1332 22.7846 53.5445L23.4312 54.1884L28.5061 49.1643C28.7118 48.9603 28.9561 48.7985 29.2251 48.6881C29.4941 48.5777 29.7825 48.5208 30.0737 48.5208C30.365 48.5208 30.6533 48.5777 30.9224 48.6881C31.1914 48.7985 31.4357 48.9603 31.6414 49.1643ZM31.6414 66.6851C31.8476 66.8885 32.0112 67.1302 32.1228 67.3963C32.2344 67.6624 32.2919 67.9476 32.2919 68.2357C32.2919 68.5238 32.2344 68.809 32.1228 69.0751C32.0112 69.3411 31.8476 69.5828 31.6414 69.7863L24.9988 76.3566C24.7931 76.5605 24.5488 76.7224 24.2798 76.8328C24.0108 76.9432 23.7224 77 23.4312 77C23.1399 77 22.8515 76.9432 22.5825 76.8328C22.3135 76.7224 22.0692 76.5605 21.8635 76.3566L19.6493 74.1665C19.2336 73.7552 19 73.1975 19 72.6159C19 72.0343 19.2336 71.4765 19.6493 71.0653C20.0651 70.654 20.629 70.423 21.217 70.423C21.805 70.423 22.3689 70.654 22.7846 71.0653L23.4312 71.7092L28.5061 66.6851C28.7118 66.4811 28.9561 66.3193 29.2251 66.2089C29.4941 66.0985 29.7825 66.0417 30.0737 66.0417C30.365 66.0417 30.6533 66.0985 30.9224 66.2089C31.1914 66.3193 31.4357 66.4811 31.6414 66.6851Z" fill="#E64251"/>
</svg>
