<svg width="100" height="110" viewBox="0 0 100 110" fill="none" xmlns="http://www.w3.org/2000/svg">
<path opacity="0.15" d="M41.7394 2.15663C46.7199 -0.718875 52.8561 -0.718876 57.8367 2.15663L91.5274 21.608C96.5079 24.4835 99.576 29.7976 99.576 35.5486V74.4514C99.576 80.2024 96.5079 85.5165 91.5274 88.392L57.8367 107.843C52.8561 110.719 46.7199 110.719 41.7394 107.843L8.04864 88.392C3.06812 85.5165 0 80.2024 0 74.4514V35.5486C0 29.7976 3.06812 24.4835 8.04864 21.608L41.7394 2.15663Z" fill="#00BB98"/>
<path d="M54.875 29C55.306 29 55.7193 29.1712 56.024 29.476C56.3288 29.7807 56.5 30.194 56.5 30.625C56.5 31.056 56.6712 31.4693 56.976 31.774C57.2807 32.0788 57.694 32.25 58.125 32.25C58.556 32.25 58.9693 32.4212 59.274 32.726C59.5788 33.0307 59.75 33.444 59.75 33.875V35.5C59.75 35.931 59.5788 36.3443 59.274 36.649C58.9693 36.9538 58.556 37.125 58.125 37.125H41.875C41.444 37.125 41.0307 36.9538 40.726 36.649C40.4212 36.3443 40.25 35.931 40.25 35.5V33.875C40.25 33.444 40.4212 33.0307 40.726 32.726C41.0307 32.4212 41.444 32.25 41.875 32.25C42.306 32.25 42.7193 32.0788 43.024 31.774C43.3288 31.4693 43.5 31.056 43.5 30.625C43.5 30.194 43.6712 29.7807 43.976 29.476C44.2807 29.1712 44.694 29 45.125 29H54.875Z" fill="#00BB34"/>
<path d="M33.75 37.125C33.75 36.694 33.9212 36.2807 34.226 35.976C34.5307 35.6712 34.944 35.5 35.375 35.5H37C37.431 35.5 37.8443 35.3288 38.149 35.024C38.4538 34.7193 38.625 34.306 38.625 33.875C38.625 33.444 38.4538 33.0307 38.149 32.726C37.8443 32.4212 37.431 32.25 37 32.25H35.375C34.0821 32.25 32.8421 32.7636 31.9279 33.6779C31.0136 34.5921 30.5 35.8321 30.5 37.125V76.125C30.5 77.4179 31.0136 78.6579 31.9279 79.5721C32.8421 80.4864 34.0821 81 35.375 81H64.625C65.9179 81 67.1579 80.4864 68.0721 79.5721C68.9864 78.6579 69.5 77.4179 69.5 76.125V37.125C69.5 35.8321 68.9864 34.5921 68.0721 33.6779C67.1579 32.7636 65.9179 32.25 64.625 32.25H63C62.569 32.25 62.1557 32.4212 61.851 32.726C61.5462 33.0307 61.375 33.444 61.375 33.875C61.375 34.306 61.5462 34.7193 61.851 35.024C62.1557 35.3288 62.569 35.5 63 35.5H64.625C65.056 35.5 65.4693 35.6712 65.774 35.976C66.0788 36.2807 66.25 36.694 66.25 37.125V76.125C66.25 76.556 66.0788 76.9693 65.774 77.274C65.4693 77.5788 65.056 77.75 64.625 77.75H35.375C34.944 77.75 34.5307 77.5788 34.226 77.274C33.9212 76.9693 33.75 76.556 33.75 76.125V37.125Z" fill="#00BB34"/>
<path d="M59.2756 54.5255C59.5807 54.2203 59.7522 53.8065 59.7522 53.375C59.7522 52.9435 59.5807 52.5296 59.2756 52.2245C58.9705 51.9193 58.5566 51.7479 58.1251 51.7479C57.6936 51.7479 57.2797 51.9193 56.9746 52.2245L48.3751 60.8272L44.6506 57.0995C44.3455 56.7943 43.9316 56.6229 43.5001 56.6229C43.0686 56.6229 42.6547 56.7943 42.3496 57.0995C42.0445 57.4046 41.873 57.8185 41.873 58.25C41.873 58.6815 42.0445 59.0953 42.3496 59.4005L47.2246 64.2755C47.3755 64.4268 47.5549 64.5469 47.7523 64.6288C47.9497 64.7107 48.1614 64.7529 48.3751 64.7529C48.5888 64.7529 48.8005 64.7107 48.9979 64.6288C49.1953 64.5469 49.3747 64.4268 49.5256 64.2755L59.2756 54.5255Z" fill="#00BB34"/>
</svg>
