<svg width="100" height="110" viewBox="0 0 100 110" fill="none" xmlns="http://www.w3.org/2000/svg">
<path opacity="0.15" d="M41.7394 2.15663C46.7199 -0.718875 52.8561 -0.718876 57.8367 2.15663L91.5274 21.608C96.5079 24.4835 99.576 29.7976 99.576 35.5486V74.4514C99.576 80.2024 96.5079 85.5165 91.5274 88.392L57.8367 107.843C52.8561 110.719 46.7199 110.719 41.7394 107.843L8.04864 88.392C3.06812 85.5165 0 80.2024 0 74.4514V35.5486C0 29.7976 3.06812 24.4835 8.04864 21.608L41.7394 2.15663Z" fill="#2B59FF"/>
<path fill-rule="evenodd" clip-rule="evenodd" d="M33.6875 71.7812C33.6875 71.1265 33.9476 70.4986 34.4106 70.0356C34.8736 69.5726 35.5015 69.3125 36.1562 69.3125H80.5938C81.2485 69.3125 81.8764 69.5726 82.3394 70.0356C82.8024 70.4986 83.0625 71.1265 83.0625 71.7812C83.0625 72.436 82.8024 73.0639 82.3394 73.5269C81.8764 73.9899 81.2485 74.25 80.5938 74.25H36.1562C35.5015 74.25 34.8736 73.9899 34.4106 73.5269C33.9476 73.0639 33.6875 72.436 33.6875 71.7812ZM33.6875 52.0312C33.6875 51.3765 33.9476 50.7486 34.4106 50.2856C34.8736 49.8226 35.5015 49.5625 36.1562 49.5625H80.5938C81.2485 49.5625 81.8764 49.8226 82.3394 50.2856C82.8024 50.7486 83.0625 51.3765 83.0625 52.0312C83.0625 52.686 82.8024 53.3139 82.3394 53.7769C81.8764 54.2399 81.2485 54.5 80.5938 54.5H36.1562C35.5015 54.5 34.8736 54.2399 34.4106 53.7769C33.9476 53.3139 33.6875 52.686 33.6875 52.0312ZM33.6875 32.2812C33.6875 31.6265 33.9476 30.9986 34.4106 30.5356C34.8736 30.0726 35.5015 29.8125 36.1562 29.8125H80.5938C81.2485 29.8125 81.8764 30.0726 82.3394 30.5356C82.8024 30.9986 83.0625 31.6265 83.0625 32.2812C83.0625 32.936 82.8024 33.5639 82.3394 34.0269C81.8764 34.4899 81.2485 34.75 80.5938 34.75H36.1562C35.5015 34.75 34.8736 34.4899 34.4106 34.0269C33.9476 33.5639 33.6875 32.936 33.6875 32.2812Z" fill="#008DD0"/>
<path d="M17.4579 73.5834V71.243H18.875C19.9464 71.243 20.6673 70.5666 20.6673 69.6779C20.6673 68.7644 19.8872 68.1472 18.8849 68.1472C17.7838 68.1472 17.0728 68.8977 17.0432 69.6779H14.1301C14.2091 67.372 15.9718 65.792 18.9984 65.792C21.9017 65.7822 23.7088 67.2289 23.7236 69.2631C23.733 69.9608 23.4937 70.6391 23.0486 71.1765C22.6035 71.7138 21.9816 72.0753 21.2944 72.196V72.3589C22.0736 72.417 22.8004 72.7733 23.3236 73.3535C23.8469 73.9338 24.1263 74.6935 24.1038 75.4745C24.1186 78.1062 21.6252 79.4245 18.9145 79.4245C15.6755 79.4245 13.977 77.5976 13.9375 75.5041H16.8111C16.8506 76.383 17.7295 77.015 18.8948 77.0298C20.1489 77.0298 20.9883 76.3139 20.9784 75.3017C20.9685 74.3389 20.2131 73.5834 18.9343 73.5834H17.453H17.4579ZM17.4382 50.3821H14.4559V50.2093C14.4559 48.1948 15.9125 46.042 19.1861 46.042C22.0646 46.042 23.9261 47.6517 23.9261 49.7748C23.9261 51.6955 22.6571 52.8212 21.5758 53.9618L18.9244 56.786V56.9342H24.1285V59.4375H14.6436V57.4872L19.3688 52.599C20.0501 51.8979 20.8154 51.098 20.8154 50.0908C20.8154 49.202 20.0896 48.5108 19.1268 48.5108C18.9045 48.5026 18.683 48.5401 18.4757 48.6208C18.2684 48.7015 18.0799 48.8238 17.9217 48.9802C17.7635 49.1365 17.639 49.3236 17.5558 49.5299C17.4727 49.7362 17.4326 49.9573 17.4382 50.1797V50.3821ZM21.6597 39.6875H18.5244V29.4372H18.3714L15.4187 31.511V28.7114L18.5244 26.5241H21.6597V39.6875Z" fill="#008DD0"/>
</svg>
