<svg width="17" height="14" viewBox="0 0 17 14" fill="currentColor" xmlns="http://www.w3.org/2000/svg">
<path d="M7.55534 10.0625C7.55534 7.72871 9.3486 5.7832 11.7286 5.34297L11.3414 3.34496C11.2593 2.92852 10.8638 2.625 10.4064 2.625H9.93416V1.3125C9.93416 0.587891 9.29607 0 8.51365 0H4.7279C3.94578 0 3.31124 0.587891 3.31124 1.3125V2.625H2.81422C2.35676 2.625 1.96186 2.92906 1.8807 3.34633L0.013942 12.9713C-0.0843393 13.4887 0.33889 14 0.947467 14H9.76917C8.4319 13.1305 7.55534 11.6922 7.55534 10.0625ZM4.722 1.3125H8.49978V2.625H4.722V1.3125ZM12.7498 6.125C10.4034 6.125 8.49978 7.88867 8.49978 10.0625C8.49978 12.2363 10.4022 14 12.7498 14C15.0961 14 16.9998 12.2363 16.9998 10.0625C16.9998 7.88867 15.0961 6.125 12.7498 6.125ZM14.6387 10.5H13.222V11.8125C13.222 12.0541 13.0106 12.25 12.7763 12.25C12.5421 12.25 12.2776 12.0531 12.2776 11.8125V10.5H10.8609C10.6001 10.5 10.4152 10.3041 10.4152 10.0625C10.4152 9.82089 10.6012 9.625 10.8609 9.625H12.2776V8.3125C12.2776 8.07187 12.4901 7.875 12.7498 7.875C13.0095 7.875 13.222 8.07187 13.222 8.3125V9.625H14.6387C14.8995 9.625 15.1109 9.82089 15.1109 10.0625C15.1109 10.3041 14.8984 10.5 14.6387 10.5Z" fill="currentColor"/>
</svg>
